<svg width="312" height="294" viewBox="0 0 312 294" fill="none" xmlns="http://www.w3.org/2000/svg">
<g clip-path="url(#clip0_24_16)">
<path d="M3.05176e-05 128.652H18.3279V147H3.05176e-05V128.652Z" fill="#FDCA00"/>
<path d="M18.3279 147H36.6558V165.348H18.3279V147Z" fill="#CD3635"/>
<path d="M18.3279 128.652H36.6558V147H18.3279V128.652Z" fill="#FDCA00"/>
<path d="M18.3279 110.303H36.6558V128.652H18.3279V110.303Z" fill="#E44342"/>
<path d="M36.6558 202.045H54.9836V220.393H36.6558V202.045Z" fill="#EDA302"/>
<path d="M36.6558 183.697H54.9836V202.045H36.6558V183.697Z" fill="#FDCA00"/>
<path d="M36.6558 165.348H54.9836V183.696H36.6558V165.348Z" fill="#C22F2E"/>
<path d="M36.6558 147H54.9836V165.348H36.6558V147Z" fill="#CD3635"/>
<path d="M36.6558 128.652H54.9836V147H36.6558V128.652Z" fill="#D83D3C"/>
<path d="M36.6558 110.303H54.9836V128.652H36.6558V110.303Z" fill="#E44342"/>
<path d="M36.6558 91.9551H54.9836V110.303H36.6558V91.9551Z" fill="#FA5150"/>
<path d="M55.1965 220.394H73.5244V238.742H55.1965V220.394Z" fill="#E69004"/>
<path d="M55.1968 202.045H73.5247V220.393H55.1968V202.045Z" fill="#EDA302"/>
<path d="M55.1968 183.697H73.5247V202.045H55.1968V183.697Z" fill="#FDCA00"/>
<path d="M55.1968 165.348H73.5247V183.696H55.1968V165.348Z" fill="#C22F2E"/>
<path d="M55.1968 147H73.5247V165.348H55.1968V147Z" fill="#CD3635"/>
<path d="M55.1968 128.652H73.5247V147H55.1968V128.652Z" fill="#D83D3C"/>
<path d="M55.1968 110.303H73.5247V128.652H55.1968V110.303Z" fill="#253532"/>
<path d="M55.1968 91.9551H73.5247V110.303H55.1968V91.9551Z" fill="#FA5150"/>
<path d="M55.1968 73.3936H73.5247V91.7419H55.1968V73.3936Z" fill="#FA5150"/>
<path d="M73.5247 238.742H91.8525V257.09H73.5247V238.742Z" fill="#D66906"/>
<path d="M73.5247 220.394H91.8525V238.742H73.5247V220.394Z" fill="#E69004"/>
<path d="M73.5247 202.045H91.8525V220.393H73.5247V202.045Z" fill="#EDA302"/>
<path d="M73.5247 183.697H91.8525V202.045H73.5247V183.697Z" fill="#FDCA00"/>
<path d="M73.5247 165.348H91.8525V183.696H73.5247V165.348Z" fill="#77B73F"/>
<path d="M73.5247 147H91.8525V165.348H73.5247V147Z" fill="#CD3635"/>
<path d="M73.5247 128.652H91.8525V147H73.5247V128.652Z" fill="#D83D3C"/>
<path d="M73.5247 110.303H91.8525V128.652H73.5247V110.303Z" fill="#E44342"/>
<path d="M73.5247 91.9551H91.8525V110.303H73.5247V91.9551Z" fill="#FA5150"/>
<path d="M73.5247 73.3936H91.8525V91.7419H73.5247V73.3936Z" fill="#FA5150"/>
<path d="M91.8525 238.742H110.18V257.09H91.8525V238.742Z" fill="#D66906"/>
<path d="M91.8523 220.394H110.18V238.742H91.8523V220.394Z" fill="#E69004"/>
<path d="M91.8525 202.045H110.18V220.393H91.8525V202.045Z" fill="#EDA302"/>
<path d="M91.8525 183.697H110.18V202.045H91.8525V183.697Z" fill="#64AB2A"/>
<path d="M91.8525 165.348H110.18V183.696H91.8525V165.348Z" fill="#77B73F"/>
<path d="M91.8525 147H110.18V165.348H91.8525V147Z" fill="#8AC354"/>
<path d="M91.8525 128.652H110.18V147H91.8525V128.652Z" fill="#D83D3C"/>
<path d="M91.8525 110.303H110.18V128.652H91.8525V110.303Z" fill="#E44342"/>
<path d="M91.8525 91.9551H110.18V110.303H91.8525V91.9551Z" fill="#FA5150"/>
<path d="M91.8525 73.3936H110.18V91.7419H91.8525V73.3936Z" fill="#C3E793"/>
<path d="M110.18 238.742H128.508V257.09H110.18V238.742Z" fill="#D66906"/>
<path d="M110.18 220.394H128.508V238.742H110.18V220.394Z" fill="#E69004"/>
<path d="M110.18 202.045H128.508V220.393H110.18V202.045Z" fill="#EDA302"/>
<path d="M110.18 183.697H128.508V202.045H110.18V183.697Z" fill="#64AB2A"/>
<path d="M110.18 165.348H128.508V183.696H110.18V165.348Z" fill="#77B73F"/>
<path d="M110.18 147H128.508V165.348H110.18V147Z" fill="#8AC354"/>
<path d="M110.18 128.652H128.508V147H110.18V128.652Z" fill="#9DCF69"/>
<path d="M110.18 110.303H128.508V128.652H110.18V110.303Z" fill="#E44342"/>
<path d="M110.18 91.9551H128.508V110.303H110.18V91.9551Z" fill="#8AC354"/>
<path d="M110.18 73.3936H128.508V91.7419H110.18V73.3936Z" fill="#9DCF69"/>
<path d="M110.18 55.0449H128.508V73.3933H110.18V55.0449Z" fill="#C3E793"/>
<path d="M128.508 257.303H146.836V275.652H128.508V257.303Z" fill="#253532"/>
<path d="M128.508 238.742H146.836V257.09H128.508V238.742Z" fill="#D66906"/>
<path d="M128.508 220.394H146.836V238.742H128.508V220.394Z" fill="#E69004"/>
<path d="M128.508 202.045H146.836V220.393H128.508V202.045Z" fill="#EDA302"/>
<path d="M128.508 183.697H146.836V202.045H128.508V183.697Z" fill="#64AB2A"/>
<path d="M128.508 165.348H146.836V183.696H128.508V165.348Z" fill="#77B73F"/>
<path d="M128.508 147H146.836V165.348H128.508V147Z" fill="#8AC354"/>
<path d="M128.508 128.652H146.836V147H128.508V128.652Z" fill="#9DCF69"/>
<path d="M128.508 110.303H146.836V128.652H128.508V110.303Z" fill="#B0DB7E"/>
<path d="M128.508 91.9551H146.836V110.303H128.508V91.9551Z" fill="#77B73F"/>
<path d="M128.508 73.3936H146.836V91.7419H128.508V73.3936Z" fill="#8AC354"/>
<path d="M128.508 55.0449H146.836V73.3933H128.508V55.0449Z" fill="#9DCF69"/>
<path d="M128.508 36.6968H146.836V55.0451H128.508V36.6968Z" fill="#C3E793"/>
<path d="M146.836 275.652H165.164V294H146.836V275.652Z" fill="#253532"/>
<path d="M146.836 238.742H165.164V257.09H146.836V238.742Z" fill="#D66906"/>
<path d="M146.836 220.394H165.164V238.742H146.836V220.394Z" fill="#E69004"/>
<path d="M146.836 202.045H165.164V220.393H146.836V202.045Z" fill="#EDA302"/>
<path d="M146.836 183.697H165.164V202.045H146.836V183.697Z" fill="#64AB2A"/>
<path d="M146.836 165.348H165.164V183.696H146.836V165.348Z" fill="#77B73F"/>
<path d="M146.836 147H165.164V165.348H146.836V147Z" fill="#8AC354"/>
<path d="M146.836 128.652H165.164V147H146.836V128.652Z" fill="#9DCF69"/>
<path d="M146.836 110.303H165.164V128.652H146.836V110.303Z" fill="#B0DB7E"/>
<path d="M146.836 91.9551H165.164V110.303H146.836V91.9551Z" fill="#64AB2A"/>
<path d="M146.836 73.3936H165.164V91.7419H146.836V73.3936Z" fill="#77B73F"/>
<path d="M146.836 55.0449H165.164V73.3933H146.836V55.0449Z" fill="#8AC354"/>
<path d="M146.836 36.6968H165.164V55.0451H146.836V36.6968Z" fill="#9DCF69"/>
<path d="M146.836 18.3481H165.164V36.6965H146.836V18.3481Z" fill="#C3E793"/>
<path d="M165.164 275.652H183.492V294H165.164V275.652Z" fill="#253532"/>
<path d="M165.164 238.742H183.492V257.09H165.164V238.742Z" fill="#D66906"/>
<path d="M165.164 220.394H183.492V238.742H165.164V220.394Z" fill="#E69004"/>
<path d="M165.164 202.045H183.492V220.393H165.164V202.045Z" fill="#EDA302"/>
<path d="M165.164 183.697H183.492V202.045H165.164V183.697Z" fill="#64AB2A"/>
<path d="M165.164 165.348H183.492V183.696H165.164V165.348Z" fill="#77B73F"/>
<path d="M165.164 147H183.492V165.348H165.164V147Z" fill="#8AC354"/>
<path d="M165.164 128.652H183.492V147H165.164V128.652Z" fill="#9DCF69"/>
<path d="M165.164 110.303H183.492V128.652H165.164V110.303Z" fill="#B0DB7E"/>
<path d="M165.164 91.9551H183.492V110.303H165.164V91.9551Z" fill="#C3E793"/>
<path d="M165.164 73.3936H183.492V91.7419H165.164V73.3936Z" fill="#64AB2A"/>
<path d="M165.164 55.0449H183.492V73.3933H165.164V55.0449Z" fill="#77B73F"/>
<path d="M165.164 36.6968H183.492V55.0451H165.164V36.6968Z" fill="#8AC354"/>
<path d="M165.164 18.3481H183.492V36.6965H165.164V18.3481Z" fill="#9DCF69"/>
<path d="M165.164 0H183.492V18.3483H165.164V0Z" fill="#C3E793"/>
<path d="M183.492 238.742H201.82V257.09H183.492V238.742Z" fill="#D66906"/>
<path d="M183.492 220.394H201.82V238.742H183.492V220.394Z" fill="#E69004"/>
<path d="M183.492 202.045H201.82V220.393H183.492V202.045Z" fill="#EDA302"/>
<path d="M183.492 183.697H201.82V202.045H183.492V183.697Z" fill="#64AB2A"/>
<path d="M183.492 165.348H201.82V183.696H183.492V165.348Z" fill="#77B73F"/>
<path d="M183.492 147H201.82V165.348H183.492V147Z" fill="#8AC354"/>
<path d="M183.492 128.652H201.82V147H183.492V128.652Z" fill="#9DCF69"/>
<path d="M183.492 110.303H201.82V128.652H183.492V110.303Z" fill="#B0DB7E"/>
<path d="M183.492 91.9551H201.82V110.303H183.492V91.9551Z" fill="#C3E793"/>
<path d="M201.82 238.742H220.147V257.09H201.82V238.742Z" fill="#D66906"/>
<path d="M201.82 220.394H220.147V238.742H201.82V220.394Z" fill="#E69004"/>
<path d="M201.82 202.045H220.147V220.393H201.82V202.045Z" fill="#EDA302"/>
<path d="M201.82 183.697H220.147V202.045H201.82V183.697Z" fill="#64AB2A"/>
<path d="M201.82 165.348H220.147V183.696H201.82V165.348Z" fill="#77B73F"/>
<path d="M201.82 147H220.147V165.348H201.82V147Z" fill="#8AC354"/>
<path d="M201.82 128.652H220.147V147H201.82V128.652Z" fill="#9DCF69"/>
<path d="M201.82 110.303H220.147V128.652H201.82V110.303Z" fill="#B0DB7E"/>
<path d="M201.82 91.9551H220.147V110.303H201.82V91.9551Z" fill="#C3E793"/>
<path d="M220.361 220.394H238.688V238.742H220.361V220.394Z" fill="#E69004"/>
<path d="M220.361 202.045H238.688V220.393H220.361V202.045Z" fill="#EDA302"/>
<path d="M220.361 183.697H238.688V202.045H220.361V183.697Z" fill="#64AB2A"/>
<path d="M220.361 165.348H238.688V183.696H220.361V165.348Z" fill="#77B73F"/>
<path d="M220.361 147H238.688V165.348H220.361V147Z" fill="#8AC354"/>
<path d="M220.361 128.652H238.688V147H220.361V128.652Z" fill="#9DCF69"/>
<path d="M220.361 110.303H238.688V128.652H220.361V110.303Z" fill="#B0DB7E"/>
<path d="M220.361 91.9551H238.688V110.303H220.361V91.9551Z" fill="#C3E793"/>
<path d="M238.688 202.045H257.016V220.393H238.688V202.045Z" fill="#EDA302"/>
<path d="M238.688 147H257.016V165.348H238.688V147Z" fill="#8AC354"/>
<path d="M238.688 128.652H257.016V147H238.688V128.652Z" fill="#9DCF69"/>
<path d="M238.688 110.303H257.016V128.652H238.688V110.303Z" fill="#B0DB7E"/>
<path d="M238.688 91.9551H257.016V110.303H238.688V91.9551Z" fill="#C3E793"/>
<path d="M257.016 128.652H275.344V147H257.016V128.652Z" fill="#9DCF69"/>
<path d="M257.016 110.303H275.344V128.652H257.016V110.303Z" fill="#B0DB7E"/>
<path d="M257.016 91.9551H275.344V110.303H257.016V91.9551Z" fill="#C3E793"/>
<path d="M275.344 110.303H293.672V128.652H275.344V110.303Z" fill="#B0DB7E"/>
<path d="M275.344 91.9551H293.672V110.303H275.344V91.9551Z" fill="#C3E793"/>
<path d="M293.672 91.9551H312V110.303H293.672V91.9551Z" fill="#C3E793"/>
</g>
<defs>
<clipPath id="clip0_24_16">
<rect width="312" height="294" fill="white" transform="matrix(-1 0 0 1 312 0)"/>
</clipPath>
</defs>
</svg>
