<svg width="618" height="321" viewBox="0 0 618 321" fill="none" xmlns="http://www.w3.org/2000/svg">
<g clip-path="url(#clip0_25_149)">
<path d="M255.442 313.849H250.89V317.425H255.442V313.849Z" fill="#7E9D57"/>
<path d="M282.813 313.849H278.261V317.425H282.813V313.849Z" fill="#1B2322"/>
<path d="M259.993 310.274H255.442V313.849H259.993V310.274Z" fill="#7D985B"/>
<path d="M264.545 310.274H259.993V313.849H264.545V310.274Z" fill="#252C2C"/>
<path d="M269.157 310.274H264.606V313.849H269.157V310.274Z" fill="#C0C5CB"/>
<path d="M282.813 310.274H278.261V313.849H282.813V310.274Z" fill="#19201E"/>
<path d="M342.106 310.274H337.554V313.849H342.106V310.274Z" fill="#6A7175"/>
<path d="M346.658 310.274H342.106V313.849H346.658V310.274Z" fill="#6A7175"/>
<path d="M351.27 310.274H346.719V313.849H351.27V310.274Z" fill="#6A7175"/>
<path d="M355.822 310.274H351.27V313.849H355.822V310.274Z" fill="#6A7175"/>
<path d="M136.855 306.698H132.303V310.274H136.855V306.698Z" fill="#1A1A1A"/>
<path d="M141.406 306.698H136.855V310.274H141.406V306.698Z" fill="#363B37"/>
<path d="M159.674 306.698H155.122V310.274H159.674V306.698Z" fill="#DA9637"/>
<path d="M164.226 306.698H159.674V310.274H164.226V306.698Z" fill="#DA9637"/>
<path d="M168.777 306.698H164.225V310.274H168.777V306.698Z" fill="#DA9637"/>
<path d="M173.329 306.698H168.777V310.274H173.329V306.698Z" fill="#DA9637"/>
<path d="M177.881 306.698H173.329V310.274H177.881V306.698Z" fill="#1E1E1F"/>
<path d="M264.545 306.698H259.993V310.274H264.545V306.698Z" fill="#5A6756"/>
<path d="M269.157 306.698H264.606V310.274H269.157V306.698Z" fill="#1A1A1A"/>
<path d="M273.709 306.698H269.157V310.274H273.709V306.698Z" fill="#B9BEC5"/>
<path d="M328.451 306.698H323.899V310.274H328.451V306.698Z" fill="#719346"/>
<path d="M333.003 306.698H328.451V310.274H333.003V306.698Z" fill="#667956"/>
<path d="M337.554 306.698H333.003V310.274H337.554V306.698Z" fill="#1E1E1F"/>
<path d="M360.373 306.698H355.822V310.274H360.373V306.698Z" fill="#1E1E1F"/>
<path d="M4.5517 303.123H0V306.698H4.5517V303.123Z" fill="#223214"/>
<path d="M82.1127 303.123H77.561V306.698H82.1127V303.123Z" fill="#5B9546"/>
<path d="M109.484 303.123H104.932V306.698H109.484V303.123Z" fill="#7E9E56"/>
<path d="M123.139 303.123H118.587V306.698H123.139V303.123Z" fill="#5C6A57"/>
<path d="M145.958 303.123H141.406V306.698H145.958V303.123Z" fill="#968059"/>
<path d="M150.51 303.123H145.958V306.698H150.51V303.123Z" fill="#B58D50"/>
<path d="M177.881 303.123H173.329V306.698H177.881V303.123Z" fill="#DA9637"/>
<path d="M182.432 303.123H177.881V306.698H182.432V303.123Z" fill="#252C29"/>
<path d="M346.658 303.123H342.106V306.698H346.658V303.123Z" fill="#ABB0B8"/>
<path d="M4.5517 299.608H0V303.183H4.5517V299.608Z" fill="#35562C"/>
<path d="M132.303 299.608H127.751V303.183H132.303V299.608Z" fill="#7FA054"/>
<path d="M145.958 299.608H141.406V303.183H145.958V299.608Z" fill="#202826"/>
<path d="M159.674 299.608H155.122V303.183H159.674V299.608Z" fill="#87795A"/>
<path d="M182.432 299.608H177.881V303.183H182.432V299.608Z" fill="#242526"/>
<path d="M246.338 299.608H241.786V303.183H246.338V299.608Z" fill="#7F9D57"/>
<path d="M355.822 299.608H351.27V303.183H355.822V299.608Z" fill="#1B2322"/>
<path d="M155.061 296.033H150.51V299.608H155.061V296.033Z" fill="#708461"/>
<path d="M168.777 296.033H164.225V299.608H168.777V296.033Z" fill="#363B37"/>
<path d="M228.071 296.033H223.519V299.608H228.071V296.033Z" fill="#80A251"/>
<path d="M346.658 296.033H342.106V299.608H346.658V296.033Z" fill="#61686B"/>
<path d="M18.2069 292.457H13.6552V296.032H18.2069V292.457Z" fill="#1F2C22"/>
<path d="M27.3709 292.457H22.8192V296.032H27.3709V292.457Z" fill="#304C27"/>
<path d="M177.881 292.457H173.329V296.032H177.881V292.457Z" fill="#708461"/>
<path d="M187.045 292.457H182.493V296.032H187.045V292.457Z" fill="#222424"/>
<path d="M228.071 292.457H223.519V296.032H228.071V292.457Z" fill="#7E9B59"/>
<path d="M250.89 292.457H246.338V296.032H250.89V292.457Z" fill="#AA7F43"/>
<path d="M259.993 292.457H255.442V296.032H259.993V292.457Z" fill="#262625"/>
<path d="M264.545 292.457H259.993V296.032H264.545V292.457Z" fill="#667856"/>
<path d="M27.3709 288.882H22.8192V292.457H27.3709V288.882Z" fill="#6A7174"/>
<path d="M31.9227 288.882H27.371V292.457H31.9227V288.882Z" fill="#1D1D1D"/>
<path d="M41.0261 288.882H36.4744V292.457H41.0261V288.882Z" fill="#253719"/>
<path d="M264.545 288.882H259.993V292.457H264.545V288.882Z" fill="#262524"/>
<path d="M269.157 288.882H264.606V292.457H269.157V288.882Z" fill="#242E23"/>
<path d="M323.899 288.882H319.348V292.457H323.899V288.882Z" fill="#242526"/>
<path d="M45.5777 285.307H41.026V288.882H45.5777V285.307Z" fill="#303933"/>
<path d="M54.7419 285.307H50.1902V288.882H54.7419V285.307Z" fill="#232623"/>
<path d="M59.2935 285.307H54.7418V288.882H59.2935V285.307Z" fill="#395B2E"/>
<path d="M109.484 285.307H104.932V288.882H109.484V285.307Z" fill="#679B46"/>
<path d="M187.045 285.307H182.493V288.882H187.045V285.307Z" fill="#7FA34F"/>
<path d="M246.338 285.307H241.786V288.882H246.338V285.307Z" fill="#7D995B"/>
<path d="M269.157 285.307H264.606V288.882H269.157V285.307Z" fill="#685B27"/>
<path d="M273.709 285.307H269.157V288.882H273.709V285.307Z" fill="#3C483D"/>
<path d="M72.9487 281.731H68.397V285.306H72.9487V281.731Z" fill="#1A271D"/>
<path d="M77.561 281.731H73.0093V285.306H77.561V281.731Z" fill="#273819"/>
<path d="M278.261 281.731H273.709V285.306H278.261V281.731Z" fill="#242520"/>
<path d="M282.813 281.731H278.261V285.306H282.813V281.731Z" fill="#313C31"/>
<path d="M82.1127 278.156H77.561V281.731H82.1127V278.156Z" fill="#232723"/>
<path d="M177.881 278.156H173.329V281.731H177.881V278.156Z" fill="#7D975D"/>
<path d="M255.442 278.156H250.89V281.731H255.442V278.156Z" fill="#DA9637"/>
<path d="M259.993 278.156H255.442V281.731H259.993V278.156Z" fill="#DA9637"/>
<path d="M264.545 278.156H259.993V281.731H264.545V278.156Z" fill="#DA9637"/>
<path d="M269.157 278.156H264.606V281.731H269.157V278.156Z" fill="#DA9637"/>
<path d="M273.709 278.156H269.157V281.731H273.709V278.156Z" fill="#DA9637"/>
<path d="M278.261 278.156H273.709V281.731H278.261V278.156Z" fill="#555442"/>
<path d="M287.364 278.156H282.812V281.731H287.364V278.156Z" fill="#667A56"/>
<path d="M86.6645 274.641H82.1128V278.216H86.6645V274.641Z" fill="#232324"/>
<path d="M127.69 271.065H123.139V274.641H127.69V271.065Z" fill="#6A9D46"/>
<path d="M291.916 271.065H287.364V274.641H291.916V271.065Z" fill="#383718"/>
<path d="M296.528 271.065H291.977V274.641H296.528V271.065Z" fill="#708E4D"/>
<path d="M333.003 271.065H328.451V274.641H333.003V271.065Z" fill="#697074"/>
<path d="M296.528 267.49H291.977V271.065H296.528V267.49Z" fill="#1A211A"/>
<path d="M301.08 267.49H296.528V271.065H301.08V267.49Z" fill="#718B4F"/>
<path d="M136.855 263.915H132.303V267.49H136.855V263.915Z" fill="#669B46"/>
<path d="M177.881 263.915H173.329V267.49H177.881V263.915Z" fill="#7D9B5A"/>
<path d="M255.442 263.915H250.89V267.49H255.442V263.915Z" fill="#C49244"/>
<path d="M301.08 263.915H296.528V267.49H301.08V263.915Z" fill="#575021"/>
<path d="M305.632 263.915H301.08V267.49H305.632V263.915Z" fill="#718B4F"/>
<path d="M182.432 260.339H177.881V263.914H182.432V260.339Z" fill="#222424"/>
<path d="M305.632 260.339H301.08V263.914H305.632V260.339Z" fill="#19221A"/>
<path d="M328.451 260.339H323.899V263.914H328.451V260.339Z" fill="#566551"/>
<path d="M141.406 256.764H136.855V260.339H141.406V256.764Z" fill="#6B9E46"/>
<path d="M250.89 256.764H246.338V260.339H250.89V256.764Z" fill="#28322D"/>
<path d="M259.993 256.764H255.442V260.339H259.993V256.764Z" fill="#B48D50"/>
<path d="M305.632 256.764H301.08V260.339H305.632V256.764Z" fill="#47441C"/>
<path d="M310.183 256.764H305.632V260.339H310.183V256.764Z" fill="#719347"/>
<path d="M328.451 256.764H323.899V260.339H328.451V256.764Z" fill="#404B42"/>
<path d="M250.89 253.188H246.338V256.763H250.89V253.188Z" fill="#5D6B58"/>
<path d="M264.545 253.188H259.993V256.763H264.545V253.188Z" fill="#B38C50"/>
<path d="M310.183 253.188H305.632V256.763H310.183V253.188Z" fill="#22241C"/>
<path d="M314.735 253.188H310.183V256.763H314.735V253.188Z" fill="#55634F"/>
<path d="M145.958 249.673H141.406V253.249H145.958V249.673Z" fill="#569346"/>
<path d="M246.338 249.673H241.786V253.249H246.338V249.673Z" fill="#1D2121"/>
<path d="M250.89 249.673H246.338V253.249H250.89V249.673Z" fill="#80A350"/>
<path d="M264.545 249.673H259.993V253.249H264.545V249.673Z" fill="#1D2121"/>
<path d="M269.157 249.673H264.606V253.249H269.157V249.673Z" fill="#BE9049"/>
<path d="M310.183 249.673H305.632V253.249H310.183V249.673Z" fill="#9B7630"/>
<path d="M264.606 296.033V292.457H269.157V288.882H273.709V285.306H278.261H282.812V281.731H287.364V278.156V274.641H291.977H296.528V271.065H301.08V267.49H305.632V263.914V260.339H310.183V256.764H314.735V253.188V249.673H319.348H323.899V253.188V256.764V260.339V263.914V267.49V271.065V274.641V278.156V281.731V285.306H319.348V288.882V292.457V296.033H323.899H328.451H333.003H337.554V299.608H342.106V303.123H337.554V306.698H333.003H328.451H323.899V310.274H319.348H314.735H310.183H305.632H301.08H296.528H291.977H287.364H282.812V306.698H278.261H273.709H269.157V303.123H264.606V299.608H259.993V296.033H264.606Z" fill="#709641"/>
<path d="M118.587 246.098H114.035V249.674H118.587V246.098Z" fill="#2E4724"/>
<path d="M150.51 246.098H145.958V249.674H150.51V246.098Z" fill="#689C46"/>
<path d="M191.596 246.098H187.045V249.674H191.596V246.098Z" fill="#7E9C58"/>
<path d="M314.735 246.098H310.183V249.674H314.735V246.098Z" fill="#736228"/>
<path d="M319.287 246.098H314.735V249.674H319.287V246.098Z" fill="#70904B"/>
<path d="M323.899 246.098H319.348V249.674H323.899V246.098Z" fill="#718C4E"/>
<path d="M269.157 242.522H264.606V246.098H269.157V242.522Z" fill="#80A152"/>
<path d="M319.287 242.522H314.735V246.098H319.287V242.522Z" fill="#1E1E1F"/>
<path d="M323.899 242.522H319.348V246.098H323.899V242.522Z" fill="#252526"/>
<path d="M123.139 238.947H118.587V242.523H123.139V238.947Z" fill="#1C1B1C"/>
<path d="M155.061 238.947H150.51V242.523H155.061V238.947Z" fill="#689C46"/>
<path d="M232.622 238.947H228.071V242.523H232.622V238.947Z" fill="#7D965D"/>
<path d="M237.174 238.947H232.622V242.523H237.174V238.947Z" fill="#252526"/>
<path d="M278.261 238.947H273.709V242.523H278.261V238.947Z" fill="#222122"/>
<path d="M282.813 238.947H278.261V242.523H282.813V238.947Z" fill="#222122"/>
<path d="M287.364 238.947H282.812V242.523H287.364V238.947Z" fill="#222122"/>
<path d="M291.916 238.947H287.364V242.523H291.916V238.947Z" fill="#222122"/>
<path d="M296.528 238.947H291.977V242.523H296.528V238.947Z" fill="#222122"/>
<path d="M301.08 238.947H296.528V242.523H301.08V238.947Z" fill="#222122"/>
<path d="M305.632 238.947H301.08V242.523H305.632V238.947Z" fill="#222122"/>
<path d="M310.183 238.947H305.632V242.523H310.183V238.947Z" fill="#222122"/>
<path d="M314.735 238.947H310.183V242.523H314.735V238.947Z" fill="#222122"/>
<path d="M123.139 235.372H118.587V238.947H123.139V235.372Z" fill="#636B6D"/>
<path d="M196.148 235.372H191.596V238.947H196.148V235.372Z" fill="#7E9B5A"/>
<path d="M200.7 235.372H196.148V238.947H200.7V235.372Z" fill="#424E46"/>
<path d="M205.252 235.372H200.7V238.947H205.252V235.372Z" fill="#444F47"/>
<path d="M209.803 235.372H205.251V238.947H209.803V235.372Z" fill="#7E9B59"/>
<path d="M223.519 235.372H218.967V238.947H223.519V235.372Z" fill="#7D985B"/>
<path d="M237.174 235.372H232.622V238.947H237.174V235.372Z" fill="#7FA054"/>
<path d="M278.261 235.372H273.709V238.947H278.261V235.372Z" fill="#88795A"/>
<path d="M282.813 235.372H278.261V238.947H282.813V235.372Z" fill="#A48655"/>
<path d="M287.364 235.372H282.812V238.947H287.364V235.372Z" fill="#A48655"/>
<path d="M291.916 235.372H287.364V238.947H291.916V235.372Z" fill="#A48655"/>
<path d="M296.528 235.372H291.977V238.947H296.528V235.372Z" fill="#A48655"/>
<path d="M301.08 235.372H296.528V238.947H301.08V235.372Z" fill="#A48655"/>
<path d="M305.632 235.372H301.08V238.947H305.632V235.372Z" fill="#A18354"/>
<path d="M310.183 235.372H305.632V238.947H310.183V235.372Z" fill="#97794D"/>
<path d="M314.735 235.372H310.183V238.947H314.735V235.372Z" fill="#97794D"/>
<path d="M319.287 235.372H314.735V238.947H319.287V235.372Z" fill="#1E1E1F"/>
<path d="M323.899 235.372H319.348V238.947H323.899V235.372Z" fill="#6A7173"/>
<path d="M127.69 231.796H123.139V235.372H127.69V231.796Z" fill="#242E27"/>
<path d="M159.674 231.796H155.122V235.372H159.674V231.796Z" fill="#659B46"/>
<path d="M209.803 231.796H205.251V235.372H209.803V231.796Z" fill="#80A152"/>
<path d="M278.261 231.796H273.709V235.372H278.261V231.796Z" fill="#252526"/>
<path d="M282.813 231.796H278.261V235.372H282.813V231.796Z" fill="#897A5A"/>
<path d="M323.899 231.796H319.348V235.372H323.899V231.796Z" fill="#1E1E1F"/>
<path d="M364.925 231.796H360.374V235.372H364.925V231.796Z" fill="#242425"/>
<path d="M374.029 231.796H369.477V235.372H374.029V231.796Z" fill="#222122"/>
<path d="M132.303 228.221H127.751V231.796H132.303V228.221Z" fill="#38582D"/>
<path d="M278.261 228.221H273.709V231.796H278.261V228.221Z" fill="#728561"/>
<path d="M282.813 228.221H278.261V231.796H282.813V228.221Z" fill="#242425"/>
<path d="M296.528 228.221H291.977V231.796H296.528V228.221Z" fill="#DA9637"/>
<path d="M301.08 228.221H296.528V231.796H301.08V228.221Z" fill="#DA9637"/>
<path d="M305.632 228.221H301.08V231.796H305.632V228.221Z" fill="#CC943E"/>
<path d="M310.183 228.221H305.632V231.796H310.183V228.221Z" fill="#DA9637"/>
<path d="M314.735 228.221H310.183V231.796H314.735V228.221Z" fill="#DA9637"/>
<path d="M323.899 228.221H319.348V231.796H323.899V228.221Z" fill="#1E1E1F"/>
<path d="M351.27 228.221H346.719V231.796H351.27V228.221Z" fill="#222424"/>
<path d="M369.477 228.221H364.925V231.796H369.477V228.221Z" fill="#C1C5CC"/>
<path d="M296.528 224.706H291.977V228.281H296.528V224.706Z" fill="#232B2B"/>
<path d="M301.08 224.706H296.528V228.281H301.08V224.706Z" fill="#232B2B"/>
<path d="M310.183 224.706H305.632V228.281H310.183V224.706Z" fill="#222929"/>
<path d="M319.287 224.706H314.735V228.281H319.287V224.706Z" fill="#DA9637"/>
<path d="M337.554 224.706H333.003V228.281H337.554V224.706Z" fill="#222929"/>
<path d="M346.658 224.706H342.106V228.281H346.658V224.706Z" fill="#7F9E56"/>
<path d="M351.27 224.706H346.719V228.281H351.27V224.706Z" fill="#7F9E57"/>
<path d="M355.822 224.706H351.27V228.281H355.822V224.706Z" fill="#C9CDD3"/>
<path d="M378.58 224.706H374.029V228.281H378.58V224.706Z" fill="#BABFC6"/>
<path d="M269.157 221.131H264.606V224.706H269.157V221.131Z" fill="#7E9C58"/>
<path d="M273.709 221.131H269.157V224.706H273.709V221.131Z" fill="#2F3833"/>
<path d="M296.528 221.131H291.977V224.706H296.528V221.131Z" fill="#ABB1B8"/>
<path d="M328.451 221.131H323.899V224.706H328.451V221.131Z" fill="#38391A"/>
<path d="M364.925 221.131H360.374V224.706H364.925V221.131Z" fill="#1D2121"/>
<path d="M374.029 221.131H369.477V224.706H374.029V221.131Z" fill="#ABB0B8"/>
<path d="M378.58 221.131H374.029V224.706H378.58V221.131Z" fill="#5F6769"/>
<path d="M259.993 217.555H255.442V221.131H259.993V217.555Z" fill="#7E9E56"/>
<path d="M264.545 217.555H259.993V221.131H264.545V217.555Z" fill="#313A36"/>
<path d="M291.916 217.555H287.364V221.131H291.916V217.555Z" fill="#BCC1C7"/>
<path d="M296.528 217.555H291.977V221.131H296.528V217.555Z" fill="#222929"/>
<path d="M333.003 217.555H328.451V221.131H333.003V217.555Z" fill="#1A211A"/>
<path d="M378.58 217.555H374.029V221.131H378.58V217.555Z" fill="#242425"/>
<path d="M173.329 213.98H168.777V217.555H173.329V213.98Z" fill="#569346"/>
<path d="M255.442 213.98H250.89V217.555H255.442V213.98Z" fill="#708361"/>
<path d="M269.157 213.98H264.606V217.555H269.157V213.98Z" fill="#7F9E57"/>
<path d="M319.287 213.98H314.735V217.555H319.287V213.98Z" fill="#242526"/>
<path d="M333.003 213.98H328.451V217.555H333.003V213.98Z" fill="#1D1D1E"/>
<path d="M355.822 213.98H351.27V217.555H355.822V213.98Z" fill="#7FA350"/>
<path d="M246.338 206.829H241.786V210.405H246.338V206.829Z" fill="#80A152"/>
<path d="M310.183 206.829H305.632V210.405H310.183V206.829Z" fill="#222122"/>
<path d="M314.735 206.829H310.183V210.405H314.735V206.829Z" fill="#DA9637"/>
<path d="M305.632 203.314H301.08V206.889H305.632V203.314Z" fill="#1A2120"/>
<path d="M337.554 203.314H333.003V206.889H337.554V203.314Z" fill="#454F41"/>
<path d="M351.27 203.314H346.719V206.889H351.27V203.314Z" fill="#7F9F55"/>
<path d="M355.822 203.314H351.27V206.889H355.822V203.314Z" fill="#5B6957"/>
<path d="M360.373 203.314H355.822V206.889H360.373V203.314Z" fill="#222122"/>
<path d="M305.632 199.739H301.08V203.314H305.632V199.739Z" fill="#DA9637"/>
<path d="M337.554 199.739H333.003V203.314H337.554V199.739Z" fill="#212122"/>
<path d="M164.226 196.163H159.674V199.739H164.226V196.163Z" fill="#32502A"/>
<path d="M301.08 196.163H296.528V199.739H301.08V196.163Z" fill="#323733"/>
<path d="M287.364 192.588H282.812V196.163H287.364V192.588Z" fill="#7D9B5A"/>
<path d="M301.08 192.588H296.528V196.163H301.08V192.588Z" fill="#202826"/>
<path d="M337.554 192.588H333.003V196.163H337.554V192.588Z" fill="#252626"/>
<path d="M346.658 192.588H342.106V196.163H346.658V192.588Z" fill="#222424"/>
<path d="M173.329 189.013H168.777V192.588H173.329V189.013Z" fill="#212620"/>
<path d="M282.813 189.013H278.261V192.588H282.813V189.013Z" fill="#7D985C"/>
<path d="M305.632 185.437H301.08V189.012H305.632V185.437Z" fill="#988159"/>
<path d="M182.432 181.862H177.881V185.437H182.432V181.862Z" fill="#27322C"/>
<path d="M287.364 181.862H282.812V185.437H287.364V181.862Z" fill="#202826"/>
<path d="M232.622 178.347H228.071V181.922H232.622V178.347Z" fill="#609845"/>
<path d="M287.364 178.347H282.812V181.922H287.364V178.347Z" fill="#232B29"/>
<path d="M346.658 178.347H342.106V181.922H346.658V178.347Z" fill="#222122"/>
<path d="M191.596 174.771H187.045V178.347H191.596V174.771Z" fill="#2A4020"/>
<path d="M237.174 174.771H232.622V178.347H237.174V174.771Z" fill="#649A45"/>
<path d="M310.183 174.771H305.632V178.347H310.183V174.771Z" fill="#CE943E"/>
<path d="M346.658 174.771H342.106V178.347H346.658V174.771Z" fill="#202827"/>
<path d="M196.148 171.196H191.596V174.771H196.148V171.196Z" fill="#181819"/>
<path d="M200.7 171.196H196.148V174.771H200.7V171.196Z" fill="#2B4322"/>
<path d="M250.89 171.196H246.338V174.771H250.89V171.196Z" fill="#7F9F55"/>
<path d="M287.364 171.196H282.812V174.771H287.364V171.196Z" fill="#7F9E55"/>
<path d="M342.106 171.196H337.554V174.771H342.106V171.196Z" fill="#19201F"/>
<path d="M278.261 167.621H273.709V171.196H278.261V167.621Z" fill="#7FA251"/>
<path d="M282.813 167.621H278.261V171.196H282.813V167.621Z" fill="#232B29"/>
<path d="M314.735 167.621H310.183V171.196H314.735V167.621Z" fill="#BD904A"/>
<path d="M246.338 164.045H241.786V167.62H246.338V164.045Z" fill="#56864B"/>
<path d="M250.89 164.045H246.338V167.62H250.89V164.045Z" fill="#202826"/>
<path d="M278.261 164.045H273.709V167.62H278.261V164.045Z" fill="#303935"/>
<path d="M314.735 164.045H310.183V167.62H314.735V164.045Z" fill="#DA9637"/>
<path d="M196.148 160.47H191.596V164.045H196.148V160.47Z" fill="#242526"/>
<path d="M209.803 160.47H205.251V164.045H209.803V160.47Z" fill="#8D6572"/>
<path d="M214.416 160.47H209.864V164.045H214.416V160.47Z" fill="#222620"/>
<path d="M269.157 160.47H264.606V164.045H269.157V160.47Z" fill="#1B2320"/>
<path d="M314.735 160.47H310.183V164.045H314.735V160.47Z" fill="#1D2121"/>
<path d="M196.148 156.894H191.596V160.469H196.148V156.894Z" fill="#464548"/>
<path d="M214.416 156.894H209.864V160.469H214.416V156.894Z" fill="#776169"/>
<path d="M218.967 156.894H214.416V160.469H218.967V156.894Z" fill="#212021"/>
<path d="M259.993 156.894H255.442V160.469H259.993V156.894Z" fill="#5B8252"/>
<path d="M269.157 156.894H264.606V160.469H269.157V156.894Z" fill="#637E5A"/>
<path d="M191.596 153.379H187.045V156.955H191.596V153.379Z" fill="#A15F76"/>
<path d="M196.148 153.379H191.596V156.955H196.148V153.379Z" fill="#996274"/>
<path d="M223.519 153.379H218.967V156.955H223.519V153.379Z" fill="#856075"/>
<path d="M228.071 153.379H223.519V156.955H228.071V153.379Z" fill="#1D1C1D"/>
<path d="M323.899 153.379H319.348V156.955H323.899V153.379Z" fill="#232B29"/>
<path d="M328.451 153.379H323.899V156.955H328.451V153.379Z" fill="#222A26"/>
<path d="M333.003 153.379H328.451V156.955H333.003V153.379Z" fill="#222A26"/>
<path d="M337.554 153.379H333.003V156.955H337.554V153.379Z" fill="#222A26"/>
<path d="M150.51 149.804H145.958V153.38H150.51V149.804Z" fill="#5F6769"/>
<path d="M155.061 149.804H150.51V153.38H155.061V149.804Z" fill="#A95875"/>
<path d="M159.674 149.804H155.122V153.38H159.674V149.804Z" fill="#7C636D"/>
<path d="M164.226 149.804H159.674V153.38H164.226V149.804Z" fill="#474649"/>
<path d="M173.329 149.804H168.777V153.38H173.329V149.804Z" fill="#202827"/>
<path d="M177.881 149.804H173.329V153.38H177.881V149.804Z" fill="#474649"/>
<path d="M182.432 149.804H177.881V153.38H182.432V149.804Z" fill="#665A60"/>
<path d="M187.045 149.804H182.493V153.38H187.045V149.804Z" fill="#A85875"/>
<path d="M196.148 149.804H191.596V153.38H196.148V149.804Z" fill="#9A6274"/>
<path d="M232.622 149.804H228.071V153.38H232.622V149.804Z" fill="#1A271D"/>
<path d="M278.261 149.804H273.709V153.38H278.261V149.804Z" fill="#5A9446"/>
<path d="M319.287 149.804H314.735V153.38H319.287V149.804Z" fill="#455149"/>
<path d="M323.899 149.804H319.348V153.38H323.899V149.804Z" fill="#937E5A"/>
<path d="M328.451 149.804H323.899V153.38H328.451V149.804Z" fill="#8D7651"/>
<path d="M333.003 149.804H328.451V153.38H333.003V149.804Z" fill="#8D7651"/>
<path d="M337.554 149.804H333.003V153.38H337.554V149.804Z" fill="#8D7651"/>
<path d="M155.061 146.229H150.51V149.804H155.061V146.229Z" fill="#8A6472"/>
<path d="M196.148 146.229H191.596V149.804H196.148V146.229Z" fill="#9F6176"/>
<path d="M223.519 146.229H218.967V149.804H223.519V146.229Z" fill="#8D5876"/>
<path d="M237.174 146.229H232.622V149.804H237.174V146.229Z" fill="#232324"/>
<path d="M319.287 146.229H314.735V149.804H319.287V146.229Z" fill="#80A251"/>
<path d="M342.106 146.229H337.554V149.804H342.106V146.229Z" fill="#6A5C27"/>
<path d="M209.803 142.653H205.251V146.229H209.803V142.653Z" fill="#9E4A72"/>
<path d="M223.519 142.653H218.967V146.229H223.519V142.653Z" fill="#1E1E1F"/>
<path d="M241.787 142.653H237.235V146.229H241.787V142.653Z" fill="#7F9E56"/>
<path d="M250.89 142.653H246.338V146.229H250.89V142.653Z" fill="#2D4523"/>
<path d="M328.451 142.653H323.899V146.229H328.451V142.653Z" fill="#AC8B54"/>
<path d="M346.658 142.653H342.106V146.229H346.658V142.653Z" fill="#1C2214"/>
<path d="M351.27 142.653H346.719V146.229H351.27V142.653Z" fill="#1C2214"/>
<path d="M155.061 139.078H150.51V142.653H155.061V139.078Z" fill="#555053"/>
<path d="M218.967 139.078H214.416V142.653H218.967V139.078Z" fill="#8E5576"/>
<path d="M246.338 139.078H241.786V142.653H246.338V139.078Z" fill="#7D9A5B"/>
<path d="M255.442 139.078H250.89V142.653H255.442V139.078Z" fill="#324B27"/>
<path d="M333.003 139.078H328.451V142.653H333.003V139.078Z" fill="#BE9048"/>
<path d="M351.27 139.078H346.719V142.653H351.27V139.078Z" fill="#1C2214"/>
<path d="M155.061 135.502H150.51V139.078H155.061V135.502Z" fill="#9B6175"/>
<path d="M159.674 135.502H155.122V139.078H159.674V135.502Z" fill="#9D6175"/>
<path d="M200.7 135.502H196.148V139.078H200.7V135.502Z" fill="#5B5559"/>
<path d="M218.967 135.502H214.416V139.078H218.967V135.502Z" fill="#5E575E"/>
<path d="M259.993 135.502H255.442V139.078H259.993V135.502Z" fill="#32502A"/>
<path d="M291.916 135.502H287.364V139.078H291.916V135.502Z" fill="#6C9E45"/>
<path d="M355.822 135.502H351.27V139.078H355.822V135.502Z" fill="#363D38"/>
<path d="M141.406 131.927H136.855V135.502H141.406V131.927Z" fill="#1D2121"/>
<path d="M145.958 131.927H141.406V135.502H145.958V131.927Z" fill="#9F6076"/>
<path d="M200.7 131.927H196.148V135.502H200.7V131.927Z" fill="#9D6176"/>
<path d="M205.252 131.927H200.7V135.502H205.252V131.927Z" fill="#8C5876"/>
<path d="M246.338 131.927H241.786V135.502H246.338V131.927Z" fill="#7FA251"/>
<path d="M250.89 131.927H246.338V135.502H250.89V131.927Z" fill="#242E2A"/>
<path d="M259.993 131.927H255.442V135.502H259.993V131.927Z" fill="#4F4C4E"/>
<path d="M333.003 131.927H328.451V135.502H333.003V131.927Z" fill="#7FA153"/>
<path d="M250.89 292.457V288.882V285.306H255.442H259.993V281.731H264.606H269.157H273.709V285.306H269.157H264.606V288.882H259.993V292.457H255.442V296.033H250.89V292.457Z" fill="#C0812E"/>
<path d="M333.003 210.404H328.451V213.98H333.003V210.404Z" fill="#C0812E"/>
<path d="M337.554 164.045V167.62V171.196V174.771V178.347V181.861V185.437V189.012V192.588H333.003H328.451H323.899H319.348V189.012V185.437V181.861H323.899V178.347V174.771V171.196V167.62V164.045V160.469V156.894H328.451H333.003H337.554V160.469V164.045H333.003H337.554Z" fill="#C0812E"/>
<path d="M273.709 271.065H278.261V267.49H282.813V263.914H287.364V260.339V256.764H291.977V253.188H296.528V249.673V246.098H301.08V242.522H305.632H310.183H314.735V246.098H310.183V249.673H305.632V253.188V256.764H301.08V260.339V263.914H296.528V267.49H291.977V271.065H287.364V274.641H282.813H278.261H273.709V271.065Z" fill="#C0812E"/>
<path d="M319.348 235.372H314.735H310.183H305.632V231.796H310.183H314.735V228.221H319.348V231.796V235.372Z" fill="#C0812E"/>
<path d="M319.348 221.13V217.555V213.98H314.735V210.404H319.348V206.829V203.314V199.739V196.163H323.899H328.451H333.003V199.739V203.314V206.829V210.404H328.451V213.98V217.555V221.13H323.899V217.555V221.13V224.706V228.221H319.348V224.706V221.13Z" fill="#C0812E"/>
<path d="M337.554 146.228V149.804H333.003H328.451H323.899V146.228H328.451H333.003V142.653V139.078H337.554V135.502H342.106H346.718H342.106H337.554V131.927H342.106H346.718H351.27H355.822V135.502H351.27V139.078H346.718H342.106H346.718V142.653H342.106V146.228H337.554Z" fill="#C0812E"/>
<path d="M360.373 131.927H355.822V135.502H360.373V131.927Z" fill="#1D1D1E"/>
<path d="M132.303 128.412H127.751V131.988H132.303V128.412Z" fill="#222929"/>
<path d="M141.406 128.412H136.855V131.988H141.406V128.412Z" fill="#82656F"/>
<path d="M159.674 128.412H155.122V131.988H159.674V128.412Z" fill="#535052"/>
<path d="M205.252 128.412H200.7V131.988H205.252V128.412Z" fill="#796270"/>
<path d="M218.967 128.412H214.416V131.988H218.967V128.412Z" fill="#7D9B5A"/>
<path d="M269.157 128.412H264.606V131.988H269.157V128.412Z" fill="#816272"/>
<path d="M273.709 128.412H269.157V131.988H273.709V128.412Z" fill="#181818"/>
<path d="M369.477 128.412H364.925V131.988H369.477V128.412Z" fill="#666E71"/>
<path d="M104.932 124.837H100.38V128.412H104.932V124.837Z" fill="#222424"/>
<path d="M109.484 124.837H104.932V128.412H109.484V124.837Z" fill="#585255"/>
<path d="M127.69 124.837H123.139V128.412H127.69V124.837Z" fill="#514E50"/>
<path d="M132.303 124.837H127.751V128.412H132.303V124.837Z" fill="#856570"/>
<path d="M136.855 124.837H132.303V128.412H136.855V124.837Z" fill="#A15F76"/>
<path d="M159.674 124.837H155.122V128.412H159.674V124.837Z" fill="#A06076"/>
<path d="M164.226 124.837H159.674V128.412H164.226V124.837Z" fill="#946575"/>
<path d="M200.7 124.837H196.148V128.412H200.7V124.837Z" fill="#9F4A72"/>
<path d="M205.252 124.837H200.7V128.412H205.252V124.837Z" fill="#49494C"/>
<path d="M246.338 124.837H241.786V128.412H246.338V124.837Z" fill="#1B2322"/>
<path d="M250.89 124.837H246.338V128.412H250.89V124.837Z" fill="#A55B75"/>
<path d="M264.545 124.837H259.993V128.412H264.545V124.837Z" fill="#9F4A72"/>
<path d="M273.709 124.837H269.157V128.412H273.709V124.837Z" fill="#7E6271"/>
<path d="M351.27 124.837H346.719V128.412H351.27V124.837Z" fill="#7FA054"/>
<path d="M360.373 124.837H355.822V128.412H360.373V124.837Z" fill="#6F8160"/>
<path d="M378.58 124.837H374.029V128.412H378.58V124.837Z" fill="#222424"/>
<path d="M387.745 124.837H383.193V128.412H387.745V124.837Z" fill="#1F2626"/>
<path d="M109.484 121.261H104.932V124.837H109.484V121.261Z" fill="#A85975"/>
<path d="M164.226 121.261H159.674V124.837H164.226V121.261Z" fill="#222424"/>
<path d="M168.777 121.261H164.225V124.837H168.777V121.261Z" fill="#80646F"/>
<path d="M196.148 121.261H191.596V124.837H196.148V121.261Z" fill="#9F4A72"/>
<path d="M209.803 121.261H205.251V124.837H209.803V121.261Z" fill="#5C565C"/>
<path d="M241.787 121.261H237.235V124.837H241.787V121.261Z" fill="#1D2121"/>
<path d="M273.709 121.261H269.157V124.837H273.709V121.261Z" fill="#875F75"/>
<path d="M296.528 121.261H291.977V124.837H296.528V121.261Z" fill="#669B46"/>
<path d="M392.296 121.261H387.745V124.837H392.296V121.261Z" fill="#7D965D"/>
<path d="M396.848 121.261H392.296V124.837H396.848V121.261Z" fill="#252C29"/>
<path d="M109.484 117.686H104.932V121.261H109.484V117.686Z" fill="#565154"/>
<path d="M164.226 117.686H159.674V121.261H164.226V117.686Z" fill="#7F636E"/>
<path d="M168.777 117.686H164.225V121.261H168.777V117.686Z" fill="#222424"/>
<path d="M205.252 117.686H200.7V121.261H205.252V117.686Z" fill="#73616C"/>
<path d="M209.803 117.686H205.251V121.261H209.803V117.686Z" fill="#1E1E1F"/>
<path d="M259.993 117.686H255.442V121.261H259.993V117.686Z" fill="#746169"/>
<path d="M296.528 117.686H291.977V121.261H296.528V117.686Z" fill="#629945"/>
<path d="M396.848 117.686H392.296V121.261H396.848V117.686Z" fill="#7F9F56"/>
<path d="M104.932 114.11H100.38V117.686H104.932V114.11Z" fill="#222122"/>
<path d="M109.484 114.11H104.932V117.686H109.484V114.11Z" fill="#1A1A1A"/>
<path d="M209.803 114.11H205.251V117.686H209.803V114.11Z" fill="#1B2322"/>
<path d="M241.787 114.11H237.235V117.686H241.787V114.11Z" fill="#A15F77"/>
<path d="M259.993 114.11H255.442V117.686H259.993V114.11Z" fill="#8A5E76"/>
<path d="M264.545 114.11H259.993V117.686H264.545V114.11Z" fill="#8C5A77"/>
<path d="M296.528 114.11H291.977V117.686H296.528V114.11Z" fill="#629945"/>
<path d="M173.329 110.535H168.777V114.111H173.329V110.535Z" fill="#202827"/>
<path d="M269.157 110.535H264.606V114.111H269.157V110.535Z" fill="#8B5C77"/>
<path d="M273.709 110.535H269.157V114.111H273.709V110.535Z" fill="#7D965C"/>
<path d="M296.528 110.535H291.977V114.111H296.528V110.535Z" fill="#6A9D46"/>
<path d="M342.106 110.535H337.554V114.111H342.106V110.535Z" fill="#6E8060"/>
<path d="M401.4 110.535H396.848V114.111H401.4V110.535Z" fill="#252C2C"/>
<path d="M114.035 107.02H109.484V110.595H114.035V107.02Z" fill="#252B2A"/>
<path d="M118.587 107.02H114.035V110.595H118.587V107.02Z" fill="#60575C"/>
<path d="M191.596 107.02H187.045V110.595H191.596V107.02Z" fill="#A04A72"/>
<path d="M232.622 107.02H228.071V110.595H232.622V107.02Z" fill="#7E9B59"/>
<path d="M237.174 107.02H232.622V110.595H237.174V107.02Z" fill="#946474"/>
<path d="M255.442 107.02H250.89V110.595H255.442V107.02Z" fill="#9F4A72"/>
<path d="M346.658 107.02H342.106V110.595H346.658V107.02Z" fill="#C65D3A"/>
<path d="M355.822 107.02H351.27V110.595H355.822V107.02Z" fill="white"/>
<path d="M360.373 107.02H355.822V110.595H360.373V107.02Z" fill="white"/>
<path d="M374.029 107.02H369.477V110.595H374.029V107.02Z" fill="white"/>
<path d="M401.4 107.02H396.848V110.595H401.4V107.02Z" fill="#C8CBD1"/>
<path d="M118.587 103.445H114.035V107.02H118.587V103.445Z" fill="#846570"/>
<path d="M123.139 103.445H118.587V107.02H123.139V103.445Z" fill="#976374"/>
<path d="M177.881 103.445H173.329V107.02H177.881V103.445Z" fill="#242425"/>
<path d="M182.432 103.445H177.881V107.02H182.432V103.445Z" fill="#A06076"/>
<path d="M228.071 103.445H223.519V107.02H228.071V103.445Z" fill="#7D975C"/>
<path d="M264.545 103.445H259.993V107.02H264.545V103.445Z" fill="#826273"/>
<path d="M355.822 103.445H351.27V107.02H355.822V103.445Z" fill="#242526"/>
<path d="M374.029 103.445H369.477V107.02H374.029V103.445Z" fill="white"/>
<path d="M401.4 103.445H396.848V107.02H401.4V103.445Z" fill="#B1B7BE"/>
<path d="M104.932 99.8691H100.38V103.445H104.932V99.8691Z" fill="#1A2120"/>
<path d="M123.139 99.8691H118.587V103.445H123.139V99.8691Z" fill="#19201F"/>
<path d="M177.881 99.8691H173.329V103.445H177.881V99.8691Z" fill="#555053"/>
<path d="M264.545 99.8691H259.993V103.445H264.545V99.8691Z" fill="#5B565B"/>
<path d="M337.554 99.8691H333.003V103.445H337.554V99.8691Z" fill="#886451"/>
<path d="M355.822 99.8691H351.27V103.445H355.822V99.8691Z" fill="#373835"/>
<path d="M360.373 99.8691H355.822V103.445H360.373V99.8691Z" fill="#252526"/>
<path d="M104.932 96.2939H100.38V99.8694H104.932V96.2939Z" fill="#6F5E65"/>
<path d="M123.139 96.2939H118.587V99.8694H123.139V96.2939Z" fill="#514E50"/>
<path d="M127.69 96.2939H123.139V99.8694H127.69V96.2939Z" fill="#A85975"/>
<path d="M177.881 96.2939H173.329V99.8694H177.881V96.2939Z" fill="#AB5675"/>
<path d="M205.252 96.2939H200.7V99.8694H205.252V96.2939Z" fill="#1B2320"/>
<path d="M232.622 96.2939H228.071V99.8694H232.622V96.2939Z" fill="#565154"/>
<path d="M237.174 96.2939H232.622V99.8694H237.174V96.2939Z" fill="#A75B75"/>
<path d="M264.545 96.2939H259.993V99.8694H264.545V96.2939Z" fill="#19201F"/>
<path d="M337.554 96.2939H333.003V99.8694H337.554V96.2939Z" fill="#CA5C37"/>
<path d="M369.477 96.2939H364.925V99.8694H369.477V96.2939Z" fill="#1E1E1F"/>
<path d="M228.071 92.7188H223.519V96.2942H228.071V92.7188Z" fill="#8E6572"/>
<path d="M237.174 92.7188H232.622V96.2942H237.174V92.7188Z" fill="#242526"/>
<path d="M250.89 92.7188H246.338V96.2942H250.89V92.7188Z" fill="#9C4B72"/>
<path d="M291.916 92.7188H287.364V96.2942H291.916V92.7188Z" fill="#679B46"/>
<path d="M342.106 92.7188H337.554V96.2942H342.106V92.7188Z" fill="#CE5934"/>
<path d="M378.58 92.7188H374.029V96.2942H378.58V92.7188Z" fill="#242526"/>
<path d="M95.7679 89.1431H91.2162V92.7185H95.7679V89.1431Z" fill="#776370"/>
<path d="M100.32 89.1431H95.7678V92.7185H100.32V89.1431Z" fill="#8F6573"/>
<path d="M127.69 89.1431H123.139V92.7185H127.69V89.1431Z" fill="#A55C76"/>
<path d="M132.303 89.1431H127.751V92.7185H132.303V89.1431Z" fill="#4D4B4D"/>
<path d="M187.045 89.1431H182.493V92.7185H187.045V89.1431Z" fill="#886571"/>
<path d="M191.596 89.1431H187.045V92.7185H191.596V89.1431Z" fill="#7B6270"/>
<path d="M223.519 89.1431H218.967V92.7185H223.519V89.1431Z" fill="#728561"/>
<path d="M237.174 89.1431H232.622V92.7185H237.174V89.1431Z" fill="#8C6573"/>
<path d="M241.787 89.1431H237.235V92.7185H241.787V89.1431Z" fill="#956575"/>
<path d="M383.193 99.8694V96.2939H387.745V99.8694H392.296V103.445H387.745V107.02H383.193H378.641V103.445H383.193V99.8694Z" fill="#D4522E"/>
<path d="M346.718 96.2939V99.8694V103.445V107.02H342.106H337.554V103.445V99.8694V96.2939H342.106H346.718Z" fill="#D4522E"/>
<path d="M355.822 92.7183H360.374V96.2937H364.925V99.8691H369.477V103.445H364.925V107.02H360.374V103.445V99.8691H355.822H351.27V96.2937H355.822V92.7183Z" fill="#D4522E"/>
<path d="M369.477 92.7183H374.029V96.2937H378.641V99.8691H374.029H369.477V96.2937V92.7183Z" fill="#D4522E"/>
<path d="M392.296 92.7183H387.745V96.2937H392.296V92.7183Z" fill="#D4522E"/>
<path d="M337.554 89.1431H342.106V92.7185H337.554V96.2939H333.003V92.7185V89.1431H337.554Z" fill="#D4522E"/>
<path d="M351.27 89.1431H346.719V92.7185H351.27V89.1431Z" fill="#B1B6BD"/>
<path d="M369.477 89.1431H364.925V92.7185H369.477V89.1431Z" fill="#B1B6BD"/>
<path d="M374.029 89.1431H369.477V92.7185H374.029V89.1431Z" fill="#1E1E1F"/>
<path d="M383.193 89.1431H378.641V92.7185H383.193V89.1431Z" fill="#B1B6BD"/>
<path d="M392.296 89.1431H387.745V92.7185H392.296V89.1431Z" fill="#1F2624"/>
<path d="M401.4 89.1431H396.848V92.7185H401.4V89.1431Z" fill="#B1B6BD"/>
<path d="M405.951 89.1431H401.4V92.7185H405.951V89.1431Z" fill="#242526"/>
<path d="M91.2161 85.5679H86.6644V89.1433H91.2161V85.5679Z" fill="#7B6270"/>
<path d="M132.303 85.5679H127.751V89.1433H132.303V85.5679Z" fill="#272B2C"/>
<path d="M136.855 85.5679H132.303V89.1433H136.855V85.5679Z" fill="#4D4B4D"/>
<path d="M241.787 85.5679H237.235V89.1433H241.787V85.5679Z" fill="#1A2120"/>
<path d="M273.709 85.5679H269.157V89.1433H273.709V85.5679Z" fill="#202020"/>
<path d="M77.561 82.0527H73.0093V85.6282H77.561V82.0527Z" fill="#7FA251"/>
<path d="M82.1127 82.0527H77.561V85.6282H82.1127V82.0527Z" fill="#7D975C"/>
<path d="M86.6645 82.0527H82.1128V85.6282H86.6645V82.0527Z" fill="#202826"/>
<path d="M91.2161 82.0527H86.6644V85.6282H91.2161V82.0527Z" fill="#8C5976"/>
<path d="M136.855 82.0527H132.303V85.6282H136.855V82.0527Z" fill="#A55C76"/>
<path d="M187.045 82.0527H182.493V85.6282H187.045V82.0527Z" fill="#9F4A72"/>
<path d="M200.7 82.0527H196.148V85.6282H200.7V82.0527Z" fill="#6D5E67"/>
<path d="M223.519 82.0527H218.967V85.6282H223.519V82.0527Z" fill="#202827"/>
<path d="M241.787 82.0527H237.235V85.6282H241.787V82.0527Z" fill="#AA5775"/>
<path d="M259.993 82.0527H255.442V85.6282H259.993V82.0527Z" fill="#865E74"/>
<path d="M273.709 82.0527H269.157V85.6282H273.709V82.0527Z" fill="#2F4926"/>
<path d="M410.564 82.0527H406.012V85.6282H410.564V82.0527Z" fill="#1A2120"/>
<path d="M59.2935 78.4775H54.7418V82.053H59.2935V78.4775Z" fill="#242E2A"/>
<path d="M86.6645 78.4775H82.1128V82.053H86.6645V78.4775Z" fill="#7FA251"/>
<path d="M114.035 78.4775H109.484V82.053H114.035V78.4775Z" fill="#9B4B72"/>
<path d="M145.958 78.4775H141.406V82.053H145.958V78.4775Z" fill="#A05F76"/>
<path d="M187.045 78.4775H182.493V82.053H187.045V78.4775Z" fill="#9E4A72"/>
<path d="M196.148 78.4775H191.596V82.053H196.148V78.4775Z" fill="#7E6272"/>
<path d="M200.7 78.4775H196.148V82.053H200.7V78.4775Z" fill="#1A1A1A"/>
<path d="M223.519 78.4775H218.967V82.053H223.519V78.4775Z" fill="#62585D"/>
<path d="M246.338 78.4775H241.786V82.053H246.338V78.4775Z" fill="#24292A"/>
<path d="M250.89 78.4775H246.338V82.053H250.89V78.4775Z" fill="#525053"/>
<path d="M259.993 78.4775H255.442V82.053H259.993V78.4775Z" fill="#7D6271"/>
<path d="M273.709 78.4775H269.157V82.053H273.709V78.4775Z" fill="#36592D"/>
<path d="M287.364 78.4775H282.812V82.053H287.364V78.4775Z" fill="#659B45"/>
<path d="M374.029 78.4775H369.477V82.053H374.029V78.4775Z" fill="#7D965D"/>
<path d="M392.296 78.4775H387.745V82.053H392.296V78.4775Z" fill="#7D9A5B"/>
<path d="M396.848 78.4775H392.296V82.053H396.848V78.4775Z" fill="#7FA053"/>
<path d="M95.7679 74.9019H91.2162V78.4773H95.7679V74.9019Z" fill="#60585F"/>
<path d="M145.958 74.9019H141.406V78.4773H145.958V74.9019Z" fill="#222424"/>
<path d="M150.51 74.9019H145.958V78.4773H150.51V74.9019Z" fill="#926574"/>
<path d="M187.045 74.9019H182.493V78.4773H187.045V74.9019Z" fill="#9B4B72"/>
<path d="M200.7 74.9019H196.148V78.4773H200.7V74.9019Z" fill="#885E76"/>
<path d="M223.519 74.9019H218.967V78.4773H223.519V74.9019Z" fill="#8A6472"/>
<path d="M246.338 74.9019H241.786V78.4773H246.338V74.9019Z" fill="#8F5D77"/>
<path d="M250.89 74.9019H246.338V78.4773H250.89V74.9019Z" fill="#1B2322"/>
<path d="M259.993 74.9019H255.442V78.4773H259.993V74.9019Z" fill="#73616C"/>
<path d="M387.745 74.9019H383.193V78.4773H387.745V74.9019Z" fill="#6E8160"/>
<path d="M104.932 71.3267H100.38V74.9021H104.932V71.3267Z" fill="#675D64"/>
<path d="M150.51 71.3267H145.958V74.9021H150.51V71.3267Z" fill="#8D6572"/>
<path d="M155.061 71.3267H150.51V74.9021H155.061V71.3267Z" fill="#4B4A4C"/>
<path d="M255.442 71.3267H250.89V74.9021H255.442V71.3267Z" fill="#1F2626"/>
<path d="M259.993 71.3267H255.442V74.9021H259.993V71.3267Z" fill="#5A555A"/>
<path d="M387.745 71.3267H383.193V74.9021H387.745V71.3267Z" fill="#7D965D"/>
<path d="M396.848 71.3267H392.296V74.9021H396.848V71.3267Z" fill="#7EA054"/>
<path d="M405.951 71.3267H401.4V74.9021H405.951V71.3267Z" fill="#7D975C"/>
<path d="M72.9487 67.751H68.397V71.3264H72.9487V67.751Z" fill="#7FA250"/>
<path d="M104.932 67.751H100.38V71.3264H104.932V67.751Z" fill="#232B29"/>
<path d="M109.484 67.751H104.932V71.3264H109.484V67.751Z" fill="#836274"/>
<path d="M136.855 67.751H132.303V71.3264H136.855V67.751Z" fill="#9E4A72"/>
<path d="M159.674 67.751H155.122V71.3264H159.674V67.751Z" fill="#8D6572"/>
<path d="M255.442 67.751H250.89V71.3264H255.442V67.751Z" fill="#8C5A77"/>
<path d="M269.157 67.751H264.606V71.3264H269.157V67.751Z" fill="#19211F"/>
<path d="M114.035 64.1758H109.484V67.7512H114.035V64.1758Z" fill="#8B5A77"/>
<path d="M141.406 64.1758H136.855V67.7512H141.406V64.1758Z" fill="#9A4B73"/>
<path d="M164.226 64.1758H159.674V67.7512H164.226V64.1758Z" fill="#A75B75"/>
<path d="M77.561 60.6001H73.0093V64.1755H77.561V60.6001Z" fill="#252526"/>
<path d="M118.587 60.6001H114.035V64.1755H118.587V60.6001Z" fill="#27312C"/>
<path d="M123.139 60.6001H118.587V64.1755H123.139V60.6001Z" fill="#715F6A"/>
<path d="M164.226 60.6001H159.674V64.1755H164.226V60.6001Z" fill="#826570"/>
<path d="M168.777 60.6001H164.225V64.1755H168.777V60.6001Z" fill="#19201F"/>
<path d="M173.329 60.6001H168.777V64.1755H173.329V60.6001Z" fill="#896572"/>
<path d="M182.432 60.6001H177.881V64.1755H182.432V60.6001Z" fill="#9F4A72"/>
<path d="M205.252 60.6001H200.7V64.1755H205.252V60.6001Z" fill="#222927"/>
<path d="M218.967 60.6001H214.416V64.1755H218.967V60.6001Z" fill="#19201F"/>
<path d="M259.993 60.6001H255.442V64.1755H259.993V60.6001Z" fill="#555156"/>
<path d="M264.545 60.6001H259.993V64.1755H264.545V60.6001Z" fill="#9B8258"/>
<path d="M269.157 60.6001H264.606V64.1755H269.157V60.6001Z" fill="#96805A"/>
<path d="M282.813 60.6001H278.261V64.1755H282.813V60.6001Z" fill="#659B45"/>
<path d="M396.848 60.6001H392.296V64.1755H396.848V60.6001Z" fill="#80A250"/>
<path d="M82.1127 57.0854H77.561V60.6609H82.1127V57.0854Z" fill="#6E8161"/>
<path d="M123.139 57.0854H118.587V60.6609H123.139V57.0854Z" fill="#1F2624"/>
<path d="M127.69 57.0854H123.139V60.6609H127.69V57.0854Z" fill="#6F5F69"/>
<path d="M168.777 57.0854H164.225V60.6609H168.777V57.0854Z" fill="#9A5675"/>
<path d="M173.329 57.0854H168.777V60.6609H173.329V57.0854Z" fill="#222122"/>
<path d="M177.881 57.0854H173.329V60.6609H177.881V57.0854Z" fill="#7D626F"/>
<path d="M255.442 57.0854H250.89V60.6609H255.442V57.0854Z" fill="#836274"/>
<path d="M269.157 57.0854H264.606V60.6609H269.157V57.0854Z" fill="#C69341"/>
<path d="M273.709 57.0854H269.157V60.6609H273.709V57.0854Z" fill="#384B2D"/>
<path d="M282.813 57.0854H278.261V60.6609H282.813V57.0854Z" fill="#6B9E46"/>
<path d="M342.106 57.0854H337.554V60.6609H342.106V57.0854Z" fill="#5C6A57"/>
<path d="M396.848 57.0854H392.296V60.6609H396.848V57.0854Z" fill="#252526"/>
<path d="M82.1127 53.5103H77.561V57.0857H82.1127V53.5103Z" fill="#1A1A1A"/>
<path d="M86.6645 53.5103H82.1128V57.0857H86.6645V53.5103Z" fill="#5A6656"/>
<path d="M127.69 53.5103H123.139V57.0857H127.69V53.5103Z" fill="#242E2A"/>
<path d="M132.303 53.5103H127.751V57.0857H132.303V53.5103Z" fill="#61585F"/>
<path d="M136.855 53.5103H132.303V57.0857H136.855V53.5103Z" fill="#8A5D76"/>
<path d="M173.329 53.5103H168.777V57.0857H173.329V53.5103Z" fill="#8E5676"/>
<path d="M177.881 53.5103H173.329V57.0857H177.881V53.5103Z" fill="#222424"/>
<path d="M182.432 53.5103H177.881V57.0857H182.432V53.5103Z" fill="#1C2120"/>
<path d="M187.045 53.5103H182.493V57.0857H187.045V53.5103Z" fill="#8B5C77"/>
<path d="M205.252 53.5103H200.7V57.0857H205.252V53.5103Z" fill="#242526"/>
<path d="M223.519 53.5103H218.967V57.0857H223.519V53.5103Z" fill="#9B6275"/>
<path d="M205.252 139.078V142.653V146.229H209.864V149.804H214.416V153.38H218.967V156.894H214.416H209.864V160.47H205.252V164.045H200.7V160.47V156.894V153.38V149.804V146.229V142.653V139.078V135.502H205.252V139.078Z" fill="#AF4B72"/>
<path d="M264.545 128.412H259.993V131.988H264.545V128.412Z" fill="#AF4B72"/>
<path d="M114.035 110.535H118.587V107.02H123.139V103.445V99.8696H127.751V96.2942V92.7188H132.303V89.1434H136.855V85.5679H141.406V82.0531H145.958V78.4777H150.51V74.9023H155.122V71.3268H159.674V67.7514H164.225V64.176H168.777H173.329V60.6006H177.881V64.176H182.493V67.7514V71.3268V74.9023V78.4777V82.0531V85.5679H187.045V89.1434H182.493V92.7188V96.2942H177.881H173.329V99.8696V103.445V107.02H168.777V110.535V114.111H164.225V117.686H159.674V121.262V124.837H155.122V128.412V131.927V135.503H150.51H145.958V131.927H141.406V128.412H136.855V124.837H132.303H127.751H123.139H118.587H114.035H109.484V121.262V117.686V114.111H114.035V110.535Z" fill="#AF4B72"/>
<path d="M173.329 110.535V107.02H177.881H182.493V103.445V99.8694V96.2939H187.045V99.8694V103.445V107.02V110.535H191.596V114.11V117.686V121.261V124.837H196.148V128.412H200.7V131.927H196.148V135.502V139.078V142.653V146.229H191.596V149.804V153.379H187.045V149.804H182.493H177.881H173.329H168.777H164.225H159.674H155.122V146.229V142.653V139.078H159.674V135.502V131.927V128.412H164.225V124.837H168.777V121.261V117.686V114.11H173.329V110.535Z" fill="#AF4B72"/>
<path d="M237.235 96.2941V92.7187H241.787V89.1433V85.5679H246.338V89.1433V92.7187V96.2941H250.89V99.8696V103.445V107.02V110.535H255.442V114.111V117.686V121.261V124.837V128.412V131.927V135.503H250.89V131.927V128.412V124.837H246.338H241.787V121.261V117.686V114.111H237.235V110.535V107.02H232.622V103.445V99.8696H237.235V96.2941Z" fill="#AF4B72"/>
<path d="M104.932 85.5677H109.484V82.0529H114.035V78.4775H118.587V74.902H123.139H127.751V71.3266H132.303H136.855V67.7512H141.406V64.1758H145.958H150.51H155.122V67.7512H150.51V71.3266H145.958V74.902H141.406V78.4775H136.855V82.0529H132.303V85.5677H127.751V89.1431H123.139V92.7185V96.294H118.587V99.8694V103.445H114.035V107.02H109.484V110.535V114.11H104.932V110.535V107.02V103.445V99.8694V96.294H100.38V92.7185V89.1431V85.5677H104.932Z" fill="#AF4B72"/>
<path d="M218.967 71.3267V67.7513V64.1759V60.6005V57.0857H223.519V53.5103H228.071H232.622V57.0857H237.235H241.786V60.6005V64.1759V67.7513V71.3267V74.9022V78.4776V82.053H237.235V85.5678V89.1433H232.622V92.7187V96.2941H228.071V92.7187H223.519V89.1433V85.5678V82.053V78.4776V74.9022H218.967V71.3267Z" fill="#AF4B72"/>
<path d="M159.674 60.6006H155.122V64.176H159.674V60.6006Z" fill="#AF4B72"/>
<path d="M237.174 53.5103H232.622V57.0857H237.174V53.5103Z" fill="#856570"/>
<path d="M241.787 53.5103H237.235V57.0857H241.787V53.5103Z" fill="#966374"/>
<path d="M246.338 53.5103H241.786V57.0857H246.338V53.5103Z" fill="#796270"/>
<path d="M250.89 53.5103H246.338V57.0857H250.89V53.5103Z" fill="#5F575E"/>
<path d="M259.993 53.5103H255.442V57.0857H259.993V53.5103Z" fill="#C89340"/>
<path d="M273.709 53.5103H269.157V57.0857H273.709V53.5103Z" fill="#252626"/>
<path d="M383.193 53.5103H378.641V57.0857H383.193V53.5103Z" fill="#7D9A5A"/>
<path d="M91.2161 49.9346H86.6644V53.51H91.2161V49.9346Z" fill="#1A2120"/>
<path d="M136.855 49.9346H132.303V53.51H136.855V49.9346Z" fill="#7D9B5A"/>
<path d="M141.406 49.9346H136.855V53.51H141.406V49.9346Z" fill="#1A2120"/>
<path d="M150.51 49.9346H145.958V53.51H150.51V49.9346Z" fill="#796270"/>
<path d="M187.045 49.9346H182.493V53.51H187.045V49.9346Z" fill="#8A5D76"/>
<path d="M196.148 49.9346H191.596V53.51H196.148V49.9346Z" fill="#19201F"/>
<path d="M200.7 49.9346H196.148V53.51H200.7V49.9346Z" fill="#504E52"/>
<path d="M205.252 49.9346H200.7V53.51H205.252V49.9346Z" fill="#595459"/>
<path d="M223.519 49.9346H218.967V53.51H223.519V49.9346Z" fill="#946475"/>
<path d="M228.071 49.9346H223.519V53.51H228.071V49.9346Z" fill="#222424"/>
<path d="M232.622 49.9346H228.071V53.51H232.622V49.9346Z" fill="#79626B"/>
<path d="M237.174 49.9346H232.622V53.51H237.174V49.9346Z" fill="#A45D76"/>
<path d="M246.338 49.9346H241.786V53.51H246.338V49.9346Z" fill="#B68E4F"/>
<path d="M282.813 49.9346H278.261V53.51H282.813V49.9346Z" fill="#649A45"/>
<path d="M342.106 49.9346H337.554V53.51H342.106V49.9346Z" fill="#80A251"/>
<path d="M145.958 46.3594H141.406V49.9348H145.958V46.3594Z" fill="#5B6957"/>
<path d="M150.51 46.3594H145.958V49.9348H150.51V46.3594Z" fill="#1D2424"/>
<path d="M159.674 46.3594H155.122V49.9348H159.674V46.3594Z" fill="#7B6170"/>
<path d="M196.148 46.3594H191.596V49.9348H196.148V46.3594Z" fill="#796270"/>
<path d="M209.803 46.3594H205.251V49.9348H209.803V46.3594Z" fill="#7F9F56"/>
<path d="M223.519 46.3594H218.967V49.9348H223.519V46.3594Z" fill="#9A4B73"/>
<path d="M228.071 46.3594H223.519V49.9348H228.071V46.3594Z" fill="#7B636F"/>
<path d="M232.622 46.3594H228.071V49.9348H232.622V46.3594Z" fill="#1F2626"/>
<path d="M237.174 46.3594H232.622V49.9348H237.174V46.3594Z" fill="#77616B"/>
<path d="M241.787 46.3594H237.235V49.9348H241.787V46.3594Z" fill="#875E75"/>
<path d="M250.89 46.3594H246.338V49.9348H250.89V46.3594Z" fill="#4A4C44"/>
<path d="M273.709 46.3594H269.157V49.9348H273.709V46.3594Z" fill="#B88E4F"/>
<path d="M278.261 46.3594H273.709V49.9348H278.261V46.3594Z" fill="#58734F"/>
<path d="M9.10346 296.033H13.6552H18.2676H22.8193H27.371H31.9227H36.4744V292.457H41.0261H45.6385V288.882H50.1902H54.7419H59.2936V285.306H63.8453H68.397H73.0094H77.5611V281.731H82.1128H86.6645V278.155V274.641H91.2162H95.7679V271.065H100.38V267.49H104.932V263.914V260.339H109.484V256.764V253.188H114.035V249.673H118.587V246.098H123.139V242.522V238.947V235.372H127.751V231.796H132.303V228.221H136.855V224.706H141.406V221.131V217.555H145.958V213.98H150.51V210.404H155.122V206.829H159.674V203.314V199.739H164.226V196.163H168.777V192.588H173.329V189.012H177.881V185.437H182.493H187.045V181.862V178.347H191.596V174.771H196.148H200.7V171.196H205.252V167.62H209.864V164.045H214.416H218.967V160.47H223.519V156.894H228.071H232.622V153.379H237.235V149.804H241.787V146.229H246.338H250.89V142.653H255.442V139.078H259.993V135.502H264.606H269.157V131.927H273.709V128.412H278.261V124.837V121.261V117.686V114.11V110.535V107.02H273.709V103.445V99.8693V96.2938V92.7184V89.143V85.5676V82.0527V78.4773V74.9019V71.3265V67.7511V64.1757V60.6002V57.0854V53.51V49.9346H278.261V53.51V57.0854V60.6002V64.1757H282.813V67.7511V71.3265V74.9019V78.4773V82.0527H287.364V85.5676V89.143V92.7184V96.2938H291.977V99.8693V103.445V107.02V110.535V114.11V117.686V121.261V124.837V128.412V131.927V135.502H287.364V139.078V142.653V146.229H282.813V149.804H278.261H273.709V153.379V156.894H269.157H264.606H259.993H255.442V160.47H250.89V164.045H246.338H241.787V167.62V171.196V174.771H237.235H232.622V178.347H228.071V181.862H223.519V185.437H218.967H214.416V189.012H209.864V192.588H205.252V196.163H200.7H196.148V199.739H191.596V203.314H187.045V206.829H182.493V210.404H177.881V213.98H173.329H168.777V217.555V221.131V224.706H164.226H159.674V228.221V231.796H155.122V235.372V238.947H150.51V242.522V246.098H145.958V249.673H141.406V253.188V256.764H136.855V260.339V263.914H132.303V267.49H127.751V271.065H123.139V274.641H118.587V278.155V281.731H114.035V285.306H109.484H104.932V288.882V292.457H100.38V296.033H95.7679H91.2162V299.608H86.6645V303.123H82.1128H77.5611V306.698H73.0094H68.397V303.123H63.8453H59.2936H54.7419H50.1902H45.6385V306.698H41.0261H36.4744H31.9227H27.371H22.8193H18.2676H13.6552H9.10346H4.55176V303.123V299.608V296.033H9.10346Z" fill="#509147"/>
<path d="M282.813 46.3594H278.261V49.9348H282.813V46.3594Z" fill="#509147"/>
<path d="M351.27 46.3594H346.719V49.9348H351.27V46.3594Z" fill="#7D965D"/>
<path d="M355.822 46.3594H351.27V49.9348H355.822V46.3594Z" fill="#1D2424"/>
<path d="M168.777 42.7837H164.225V46.3591H168.777V42.7837Z" fill="#738661"/>
<path d="M173.329 42.7837H168.777V46.3591H173.329V42.7837Z" fill="#596656"/>
<path d="M200.7 42.7837H196.148V46.3591H200.7V42.7837Z" fill="#80A250"/>
<path d="M250.89 42.7837H246.338V46.3591H250.89V42.7837Z" fill="#6D5E67"/>
<path d="M255.442 42.7837H250.89V46.3591H255.442V42.7837Z" fill="#76626F"/>
<path d="M269.157 42.7837H264.606V46.3591H269.157V42.7837Z" fill="#988159"/>
<path d="M282.813 42.7837H278.261V46.3591H282.813V42.7837Z" fill="#242626"/>
<path d="M337.554 42.7837H333.003V46.3591H337.554V42.7837Z" fill="#7D975D"/>
<path d="M346.658 42.7837H342.106V46.3591H346.658V42.7837Z" fill="#1D2121"/>
<path d="M104.932 39.2085H100.38V42.7839H104.932V39.2085Z" fill="#1D2121"/>
<path d="M109.484 39.2085H104.932V42.7839H109.484V39.2085Z" fill="#7D995B"/>
<path d="M218.967 39.2085H214.416V42.7839H218.967V39.2085Z" fill="#47524A"/>
<path d="M246.338 39.2085H241.786V42.7839H246.338V39.2085Z" fill="#705F69"/>
<path d="M255.442 39.2085H250.89V42.7839H255.442V39.2085Z" fill="#19201F"/>
<path d="M259.993 39.2085H255.442V42.7839H259.993V39.2085Z" fill="#625A61"/>
<path d="M287.364 39.2085H282.812V42.7839H287.364V39.2085Z" fill="#56694B"/>
<path d="M114.035 35.6934H109.484V39.2688H114.035V35.6934Z" fill="#7FA34F"/>
<path d="M209.864 128.412V131.927V135.502H214.416V139.078V142.653H218.967V146.228V149.804H223.519V153.379H218.967H214.416V149.804H209.864V146.228V142.653H205.252V139.078V135.502V131.927V128.412V124.836H209.864V128.412Z" fill="#8F4973"/>
<path d="M264.606 114.11H269.158V117.686V121.261V124.837V128.412H264.606V124.837H259.993V121.261V117.686H264.606V114.11Z" fill="#8F4973"/>
<path d="M200.7 85.5674V89.1428V92.7182V96.2936V99.8691V103.444V107.02V110.535V114.11H205.251V117.686H200.7V121.261V124.836H196.148V121.261H191.596V117.686V114.11V110.535V107.02H187.045V103.444V99.8691V96.2936V92.7182H191.596V89.1428V85.5674H196.148H200.7Z" fill="#8F4973"/>
<path d="M95.7679 78.4771V74.9016H100.38H104.932V71.3262H109.484V67.7508H114.035V64.1754H118.587H123.139V60.6H127.751V57.0851H132.303H136.855V53.5097H141.406H145.958H150.51V49.9343H155.122H159.674V46.3589H164.226H168.777H173.329H177.881H182.493H187.045H191.596V49.9343H187.045H182.493V53.5097H177.881H173.329H168.777V57.0851H164.226V60.6H159.674H155.122V64.1754H150.51H145.958H141.406H136.855V67.7508H132.303V71.3262H127.751V74.9016H123.139H118.587V78.4771H114.035H109.484V82.0525V85.5673H104.932H100.38V89.1427H95.7679H91.2162V85.5673V82.0525V78.4771H95.7679Z" fill="#8F4973"/>
<path d="M255.442 78.4773V82.0527V85.5675H259.993V89.1429V92.7184V96.2938V99.8692V103.445V107.02V110.535V114.11H255.442V110.535V107.02H250.89V103.445V99.8692V96.2938V92.7184H246.338V89.1429V85.5675V82.0527H250.89V78.4773V74.9019H255.442V78.4773Z" fill="#8F4973"/>
<path d="M187.045 57.0852V53.5098H191.596H196.148H200.7V57.0852V60.6V64.1754V67.7508V71.3263V74.9017H196.148V78.4771H191.596V82.0525V85.5673H187.045V82.0525V78.4771V74.9017H182.493V71.3263V67.7508V64.1754V60.6H177.881V57.0852H182.493H187.045Z" fill="#8F4973"/>
<path d="M250.89 57.0854V60.6003H255.442V64.1757V67.7511H250.89V71.3265V74.9019H246.338H241.787V71.3265V67.7511V64.1757V60.6003V57.0854H246.338H250.89Z" fill="#8F4973"/>
<path d="M218.967 46.359V42.7836V39.2082V35.6934H223.519H228.071H232.622H237.235H241.786H246.338H250.89V39.2082H246.338H241.786V42.7836H237.235V46.359H232.622H228.071H223.519H218.967Z" fill="#8F4973"/>
<path d="M255.442 35.6934H250.89V39.2688H255.442V35.6934Z" fill="#7C6270"/>
<path d="M278.261 35.6934H273.709V39.2688H278.261V35.6934Z" fill="#1B2322"/>
<path d="M291.916 35.6934H287.364V39.2688H291.916V35.6934Z" fill="#596B49"/>
<path d="M328.451 35.6934H323.899V39.2688H328.451V35.6934Z" fill="#222122"/>
<path d="M337.554 35.6934H333.003V39.2688H337.554V35.6934Z" fill="#DA9637"/>
<path d="M118.587 32.1182H114.035V35.6936H118.587V32.1182Z" fill="#19201F"/>
<path d="M218.967 32.1182H214.416V35.6936H218.967V32.1182Z" fill="#7D995B"/>
<path d="M237.174 32.1182H232.622V35.6936H237.174V32.1182Z" fill="#2F3833"/>
<path d="M241.787 32.1182H237.235V35.6936H241.787V32.1182Z" fill="#242E2A"/>
<path d="M296.528 32.1182H291.977V35.6936H296.528V32.1182Z" fill="#DA9637"/>
<path d="M310.183 32.1182H305.632V35.6936H310.183V32.1182Z" fill="#1E1E1F"/>
<path d="M314.735 32.1182H310.183V35.6936H314.735V32.1182Z" fill="#1D2121"/>
<path d="M123.139 28.543H118.587V32.1184H123.139V28.543Z" fill="#252526"/>
<path d="M278.261 28.543H273.709V32.1184H278.261V28.543Z" fill="#1E1E1F"/>
<path d="M287.364 28.543H282.812V32.1184H287.364V28.543Z" fill="#1B2322"/>
<path d="M123.139 24.9673H118.587V28.5427H123.139V24.9673Z" fill="#252526"/>
<path d="M136.855 24.9673H132.303V28.5427H136.855V24.9673Z" fill="#7FA152"/>
<path d="M223.519 24.9673H218.967V28.5427H223.519V24.9673Z" fill="#5D6B58"/>
<path d="M314.735 24.9673H310.183V28.5427H314.735V24.9673Z" fill="#252526"/>
<path d="M328.451 24.9673H323.899V28.5427H328.451V24.9673Z" fill="#917D5B"/>
<path d="M342.106 24.9673H337.554V28.5427H342.106V24.9673Z" fill="#A28657"/>
<path d="M141.406 21.3921H136.855V24.9675H141.406V21.3921Z" fill="#222122"/>
<path d="M287.364 21.3921H282.812V24.9675H287.364V21.3921Z" fill="#242526"/>
<path d="M305.632 21.3921H301.08V24.9675H305.632V21.3921Z" fill="#1A1A1A"/>
<path d="M150.51 17.8164H145.958V21.3918H150.51V17.8164Z" fill="#242425"/>
<path d="M223.519 17.8164H218.967V21.3918H223.519V17.8164Z" fill="#7D975C"/>
<path d="M301.08 17.8164H296.528V21.3918H301.08V17.8164Z" fill="#B98F4E"/>
<path d="M333.003 17.8164H328.451V21.3918H333.003V17.8164Z" fill="#1E1E1F"/>
<path d="M159.674 14.2412H155.122V17.8166H159.674V14.2412Z" fill="#1A1A1A"/>
<path d="M164.226 14.2412H159.674V17.8166H164.226V14.2412Z" fill="#1B2320"/>
<path d="M200.7 14.2412H196.148V17.8166H200.7V14.2412Z" fill="#5C6A57"/>
<path d="M209.803 14.2412H205.251V17.8166H209.803V14.2412Z" fill="#1A2120"/>
<path d="M282.813 14.2412H278.261V17.8166H282.813V14.2412Z" fill="#1A1A1A"/>
<path d="M155.122 303.123H159.674V299.608H164.225H168.777H173.329H177.881V303.123H173.329V306.699H168.777H164.225H159.674H155.122H150.51V303.123H155.122Z" fill="#DA9637"/>
<path d="M259.993 281.731V285.306H255.442H250.89V281.731H255.442H259.993Z" fill="#DA9637"/>
<path d="M255.442 274.641V271.065V267.49V263.914V260.339H259.993V256.764H264.606V253.188H269.157V249.673V246.098H273.709V242.522H278.261H282.813H287.364H291.977H296.528H301.08V246.098H296.528V249.673V253.188H291.977V256.764H287.364V260.339V263.914H282.813V267.49H278.261V271.065H273.709V274.641H269.157H264.606H259.993H255.442Z" fill="#DA9637"/>
<path d="M296.528 235.372H291.977H287.364H282.812V231.797V228.221H287.364H291.977V231.797H296.528H301.08H305.632V235.372H301.08H296.528Z" fill="#DA9637"/>
<path d="M305.632 203.314V199.739H301.08V196.164H305.632H310.183H314.735H319.348V199.739V203.314V206.829V210.405H314.735V206.829H310.183H305.632V203.314Z" fill="#DA9637"/>
<path d="M319.348 185.437V189.013V192.588H314.735H310.183H305.632H301.08V189.013H305.632V185.437V181.862V178.347H310.183V174.772V171.196H314.735V167.621V164.045V160.47V156.895H319.348H323.899V160.47V164.045V167.621V171.196V174.772V178.347V181.862H319.348V185.437Z" fill="#DA9637"/>
<path d="M333.003 142.653H328.451V146.229H333.003V142.653Z" fill="#DA9637"/>
<path d="M337.554 135.502H333.003V139.078H337.554V135.502Z" fill="#DA9637"/>
<path d="M250.89 46.3594H255.442H259.993H264.606H269.157V49.9348V53.5102V57.0856H264.606V60.6005H259.993V57.0856V53.5102H255.442H250.89H246.338V49.9348H250.89V46.3594Z" fill="#DA9637"/>
<path d="M273.709 42.7842H269.157V46.3596H273.709V42.7842Z" fill="#DA9637"/>
<path d="M323.899 32.1181V28.5427H328.451V24.9672H333.003V21.3918V17.8164H337.554V21.3918V24.9672V28.5427H342.106V32.1181V35.6935V39.2083H337.554V35.6935H333.003H328.451H323.899V32.1181Z" fill="#DA9637"/>
<path d="M301.08 32.1183H296.528H291.977V35.6937H287.364V32.1183V28.5429V24.9675V21.3921V17.8166V14.2412H291.977V17.8166H296.528V21.3921H301.08V24.9675H305.632V28.5429H310.183V32.1183H305.632H301.08Z" fill="#DA9637"/>
<path d="M296.528 14.2412H291.977V17.8166H296.528V14.2412Z" fill="#1A1A1A"/>
<path d="M301.08 14.2412H296.528V17.8166H301.08V14.2412Z" fill="#1A1A1A"/>
<path d="M337.554 14.2412H333.003V17.8166H337.554V14.2412Z" fill="#C79341"/>
<path d="M200.7 10.7261H196.148V14.3015H200.7V10.7261Z" fill="#222424"/>
<path d="M278.261 10.7261H273.709V14.3015H278.261V10.7261Z" fill="#738661"/>
<path d="M287.364 10.7261H282.812V14.3015H287.364V10.7261Z" fill="#CA9440"/>
<path d="M291.916 10.7261H287.364V14.3015H291.916V10.7261Z" fill="#242425"/>
<path d="M205.252 7.15088H200.7V10.7263H205.252V7.15088Z" fill="#62696C"/>
<path d="M282.813 306.698H278.261V310.274H282.813V306.698Z" fill="#7FA94B"/>
<path d="M136.855 299.608H132.303V303.183H136.855V299.608Z" fill="#7FA94B"/>
<path d="M264.545 299.608H259.993V303.183H264.545V299.608Z" fill="#7FA94B"/>
<path d="M259.993 296.033H255.442V299.608H259.993V296.033Z" fill="#7FA94B"/>
<path d="M177.881 274.641H173.329V278.216H177.881V274.641Z" fill="#7FA94B"/>
<path d="M337.554 210.404V206.829V203.314H342.106H346.718V206.829H351.27H355.822H360.374H364.925V210.404H369.477V213.98V217.555H364.925V221.13H360.374V217.555V221.13H355.822V217.555V213.98H351.27V217.555V221.13V224.706H346.718H342.106H337.554H333.003V221.13V217.555V213.98V210.404V206.829H337.554V210.404Z" fill="#7FA94B"/>
<path d="M273.709 103.445H269.157V107.02H273.709V103.445Z" fill="#7FA94B"/>
<path d="M264.606 99.8692V96.2937V92.7183V89.1429H259.993V85.5675V82.0527V78.4772V74.9018V71.3264V67.751H264.606V71.3264V74.9018H269.158V78.4772V82.0527V85.5675V89.1429V92.7183V96.2937V99.8692H264.606Z" fill="#7FA94B"/>
<path d="M269.157 71.3267H264.606V74.9021H269.157V71.3267Z" fill="#7FA94B"/>
<path d="M273.709 35.6936V39.2085H269.158V35.6936H264.606H259.993H255.442V32.1182H250.89H246.338H241.787H237.235H232.622H228.071H223.519V28.5428V24.9674V21.392V17.8165H218.967V14.2411V17.8165H214.416H209.864V14.2411H205.252V10.7263H209.864H214.416H218.967V7.15088H223.519H228.071H232.622H237.235H241.787H246.338H250.89H255.442H259.993H264.606V10.7263H269.158H273.709V14.2411V17.8165V21.392V24.9674V28.5428V32.1182V35.6936Z" fill="#7FA94B"/>
<path d="M159.674 17.8164H155.122V21.3918H159.674V17.8164Z" fill="#7FA94B"/>
<path d="M209.803 17.8164H205.252V21.3918H209.803V17.8164Z" fill="#7FA94B"/>
<path d="M278.261 14.2412H273.709V17.8166H278.261V14.2412Z" fill="#7FA94B"/>
<path d="M218.967 7.15088H214.416V10.7263H218.967V7.15088Z" fill="#7FA94B"/>
<path d="M86.6645 303.123H82.1128V306.698H86.6645H91.2162H95.7679H100.32H104.871V303.123H109.423V306.698H113.975H118.526V303.123H123.078H127.63V299.547H132.182H136.733H141.285H145.837H150.388V295.972H154.94H159.492H164.043H168.595H173.147V292.397H177.699H182.25V288.821V285.246H177.699V281.67H173.147V278.155V274.58V271.005V267.429V263.854H177.699V260.278V256.703H182.25V253.128V249.673V246.098H186.802V242.522H191.354V246.098V249.673H186.802V253.249V256.824H182.25V260.4V263.975V267.55V271.126V274.701V278.277V281.852V285.428H186.802V289.003V292.578V296.154H182.25V299.729V303.305V306.88H177.699V310.455V314.031V317.606H182.25H186.802H191.354H195.905H200.457H205.009H209.56H214.112H218.664H223.216H227.767H232.319H236.871H241.422H245.974H250.526V314.031H255.078V310.274H259.629V306.698V303.123H255.078H250.526V299.547H245.974V303.123H241.422V299.547H236.871H232.319H227.767H223.216V295.972V292.397H227.767V295.972H232.319H236.871H241.422V292.397V288.821V285.246H245.974V281.67V278.155H250.526V274.58V271.005V267.429H245.974V263.854V260.278V256.703H241.422V253.128V249.673H245.974H250.526V253.249V256.824H255.078V253.249H259.629V249.673V246.098H264.181V242.522H268.733V238.947V235.372H273.284V231.796V228.221H277.836V224.645H273.709H269.157H264.606V221.07H260.054H255.502V217.555H250.951V213.98H246.399H241.847V210.404H237.296V206.829V203.253V199.678V196.103V192.527V188.952V185.437V181.862V178.286H232.744V181.862H228.192H223.64V185.437H219.089H214.537V189.012H209.985V192.588H205.434V196.163H200.882H196.33V199.739H191.778V203.314H187.227V206.889H182.675V210.465H178.123V214.04H173.572V217.616H169.02V221.191V224.767H164.468H159.917V228.342V231.917V235.493H155.365V239.068V242.644H150.51V246.219V249.795H145.958V253.37H141.406V256.945V260.521H136.855V264.096V267.672H132.303H127.751V271.247V274.822H123.2H118.648V278.398V281.973H114.096V285.549H109.544V289.124H104.993V292.7H100.441V296.275H95.8893H91.3376V299.85H86.7859V303.123H86.6645ZM191.596 242.522V238.947V235.372H196.148H200.7H205.252V231.796H209.803V235.372H214.355H218.907H223.458H228.01H232.562H237.113V238.947V242.522H241.665V246.098H237.113H232.562V242.522H228.01V238.947H223.458H218.907V235.372H214.355H209.803V238.947H205.252H200.7V242.522H196.148H191.596Z" fill="#7FA94B"/>
<path d="M250.89 210.404V213.98H255.442H259.993H264.545H269.097V217.555H273.648V221.13H278.2H282.752V224.706H287.304V221.13V217.555V213.98H291.855H296.407H300.959H305.51V210.404V206.829H300.959V203.253H296.407V199.678H291.855H287.304H282.813V196.103H278.261H273.709H269.157H264.606V192.527H269.157H273.709H278.261V188.952H282.813V185.437V181.861V178.286V174.711V171.135H278.261H273.709V167.56V163.984H269.157H264.606H260.054H255.502H250.951V167.56V171.135V174.711H246.399H241.847H237.296V178.286V181.861H241.847V185.437V189.012V192.588V196.163V199.739V203.314V206.889H246.399V210.465H250.89V210.404Z" fill="#7FA94B"/>
<path d="M337.554 192.588V189.013V185.437V181.862V178.347V174.771H342.106V178.347V181.862V185.437V189.013V192.588V196.163H337.554V192.588Z" fill="#7FA94B"/>
<path d="M273.709 160.47V164.045H278.261H282.813V167.62V171.196H287.364V174.771V178.347V181.922V185.497V189.073V192.648V196.224H291.916H296.468V192.648V189.073H301.019V185.437V181.861V178.286H305.571V174.711V171.135V167.56V163.984H310.123V160.409V156.834H314.675V153.258V149.683V146.107H319.226H323.778V142.532V138.956V135.381H328.33V131.806H332.881V128.23H337.433H341.985H346.536V124.837H351.088V128.412H355.64V124.837H360.192H364.743H369.295H373.847H378.398H382.95H387.502V121.261H392.053V117.686H396.605V114.11H392.053H387.502H382.95H378.398H373.847H369.295H364.743H360.192H355.64H351.088H346.536H341.985H337.433V110.535V106.959H332.881V103.384V99.8086V96.2332H328.33V92.7184V89.143V85.5675H332.881H337.433H341.985H346.536H351.088H355.64H360.192H364.743H369.295H373.847H378.398H382.95H387.502H392.053H396.605H401.157H405.709V81.9921V78.4167V74.8413H401.157V71.2659V67.6904V64.115H396.605H392.053V60.6002H387.502V57.0248H382.95H378.398V53.4494H373.847H369.295H364.743H360.192H355.64V49.8739H351.088H346.536H341.985V53.4494V57.0248V60.6002H337.433H332.881V64.1756H328.33V67.751V71.3265H323.778H319.226V67.751H314.675H310.123H305.571V64.1756V60.6002V57.0248V53.4494H301.019V49.8739V46.2985H305.571V49.8739H310.123H314.675V53.4494H319.226H323.778H328.33H332.881H337.433V49.8739H341.985H346.536V46.2985H341.985H337.433H332.881V42.7231V39.1477H328.33H323.778V35.5723H319.226H314.675H310.123H305.571H301.019H296.468H291.916V39.1477H287.364V42.7231H282.813V46.2985V49.8739V53.4494H278.261V57.0248H282.813V60.6002V64.1756V67.751V71.3265V74.9019V78.4773H287.364V82.0527V85.6281V89.2036V92.779H291.916V96.3544V99.9298V103.505V107.081V110.656H296.468V114.231V117.807V121.382V124.958H291.916V128.533V132.109V135.684V139.259H287.364V142.835V146.41H282.813V149.986H278.261V153.561H273.709V157.137H269.157V160.712H273.709V160.47ZM383.193 71.3265H387.745V74.9019H392.296V71.3265H396.848V74.9019V78.4773V82.0527H392.296H387.745V78.4773H383.193V74.9019V71.3265ZM364.925 74.9019H369.477H374.029V78.4773V82.0527H369.477V78.4773H364.925V74.9019Z" fill="#7FA94B"/>
<path d="M273.709 107.02H269.157V110.595H273.709V107.02Z" fill="#7FA94B"/>
<path d="M63.8453 74.9019H68.397V71.3265H73.0094V67.7511V64.1757H77.5611V60.6002H82.1128V57.0854H86.6645V53.51H91.2162V49.9346H95.7679V46.3592H100.38H104.932V42.7837H109.484V39.2083H114.035V35.6935H118.587H123.139H118.587V32.1181H123.139V28.5427H127.751V32.1181V28.5427H132.303H136.855V24.9672H141.406H145.958H150.51H145.958V21.3918H150.51H155.122H159.674V17.8164H164.226H168.777H173.329H177.881H182.493H187.045H191.596H196.148H200.7H205.252V21.3918H209.864H214.416H218.967V24.9672H214.416H218.967V28.5427H223.519V32.1181V35.6935H218.967V32.1181H214.416V35.6935V39.2083V42.7837V46.3592V49.9346V53.51V57.0854V60.6002V64.1757V67.7511V71.3265H218.967V74.9019H214.416H218.967V78.4773V82.0528V85.5676V89.143V92.7184H223.519V96.2938H218.967H223.519V99.8693V103.445V107.02H228.071V110.535H232.622V114.11V117.686V114.11H237.235V117.686V121.261V124.837H241.787V128.412V131.927V135.502H246.338H250.89V139.078H246.338H241.787V142.653H237.235V146.229H232.622V149.804H228.071V146.229H223.519V142.653V139.078H218.967V135.502V131.927V128.412H214.416V124.837H209.864V121.261V117.686V114.11V110.535H205.252V107.02V103.445V99.8693V96.2938V92.7184V89.143V85.5676V82.0528V78.4773V74.9019V71.3265V67.7511V64.1757V60.6002V57.0854V53.51V49.9346H209.864V46.3592H205.252H200.7V42.7837H196.148V46.3592H191.596V42.7837H187.045H182.493H177.881H173.329H168.777H164.226V46.3592H159.674H155.122H150.51H145.958H141.406V49.9346H136.855H132.303V53.51H127.751H123.139V57.0854H118.587V60.6002H114.035H109.484H114.035V64.1757H109.484H104.932V67.7511H100.38V71.3265H95.7679V74.9019H91.2162H86.6645V78.4773H82.1128V82.0528H77.5611H73.0094H68.397H63.8453H59.2936V78.4773V74.9019H63.8453Z" fill="#7FA94B"/>
<path d="M269.157 7.15088H264.606V10.7263H269.157V7.15088Z" fill="#7F9E57"/>
<path d="M223.519 3.5752H218.967V7.15062H223.519V3.5752Z" fill="#242E2A"/>
<path d="M333.003 3.5752H328.451V7.15062H333.003V3.5752Z" fill="#1A1A1A"/>
<path d="M9.10346 292.457H13.6552V296.032H9.10346H4.55176V292.457H9.10346Z" fill="black"/>
<path d="M86.6644 274.641V271.065H91.2161H95.7678V274.641H91.2161H86.6644Z" fill="black"/>
<path d="M109.484 246.098H114.035V242.522H118.587H123.139V246.098H118.587H114.035V249.673V253.188H109.484V249.673V246.098Z" fill="black"/>
<path d="M282.812 310.274H287.364H291.977H296.528H301.08H305.632H310.183H314.735H319.348H323.899H328.451H333.003H337.554V313.849H342.106H346.718H351.27H355.822V310.274H360.374V313.849H364.925V317.425H360.374H355.822H351.27H346.718H342.106H337.554H333.003H328.451H323.899H319.348H314.735H310.183H305.632H301.08H296.528H291.977H287.364H282.812V313.849V310.274Z" fill="black"/>
<path d="M13.6552 306.698H18.2676H22.8193H27.371H31.9227H36.4744H41.0261H45.6385V303.123H50.1902H54.7419H59.2936H63.8453H68.397V306.698H73.0094H77.5611H82.1128H86.6645H91.2162H95.7679H100.38H104.932H109.484H114.035H118.587H123.139V303.123H127.751H132.303H136.855V299.608H141.406V303.123V306.698H136.855H132.303V310.274H136.855H141.406V306.698H145.958H150.51H155.122V310.274H159.674H164.226H168.777H173.329H177.881V313.849V317.424H182.493H187.045H191.596H196.148H200.7H205.252H209.864H214.416H218.967H223.519H228.071H232.622H237.235H241.787H246.338H250.89H255.442V313.849H259.993V317.424H264.606H269.157H273.709H278.261H282.813V321H278.261H273.709H269.157H264.606H259.993H255.442H250.89H246.338H241.787H237.235H232.622H228.071H223.519H218.967H214.416H209.864H205.252H200.7H196.148H191.596H187.045H182.493H177.881H173.329V317.424V313.849H168.777H164.226H159.674H155.122H150.51H145.958H141.406H136.855H132.303H127.751V310.274H123.139H118.587H114.035H109.484H104.932H100.38H95.7679H91.2162H86.6645H82.1128H77.5611H73.0094H68.397H66.1515H63.8453H50.1902H45.6385H41.0261H36.4744H31.9227H27.371H22.8193H18.2676H13.6552H9.10346H4.55176V306.698H9.10346H13.6552Z" fill="black"/>
<path d="M278.261 310.274V313.849H273.709V310.274V306.698H278.261V310.274Z" fill="black"/>
<path d="M269.157 303.123V306.698H264.606H259.993V303.123H264.606H269.157Z" fill="black"/>
<path d="M342.106 303.123H337.554V306.698H342.106V303.123Z" fill="black"/>
<path d="M355.822 303.123H351.27V306.698H355.822V303.123Z" fill="black"/>
<path d="M150.51 303.123H145.958V299.608H150.51H155.122V303.123H150.51Z" fill="black"/>
<path d="M346.718 299.608V296.033H351.27V299.608V303.123H346.718H342.106V299.608H346.718Z" fill="black"/>
<path d="M4.5517 296.033H0V299.608H4.5517V296.033Z" fill="black"/>
<path d="M159.674 296.033H164.225V299.608H159.674H155.122V296.033H159.674Z" fill="black"/>
<path d="M182.493 299.608H177.881H173.329H168.777V296.032H173.329H177.881V292.457H182.493V296.032V299.608Z" fill="black"/>
<path d="M250.89 296.033H255.442V299.608H259.993V303.123H255.442H250.89V299.608H246.338H241.786H237.235H232.622H228.071V296.033H232.622H237.235H241.786V292.457V288.882H246.338V285.307V281.731V278.156H250.89V281.731V285.307V288.882V292.457H246.338V296.033H250.89Z" fill="black"/>
<path d="M342.106 296.033H337.554V299.608H342.106V296.033Z" fill="black"/>
<path d="M18.2675 292.457V288.882H22.8192V292.457V296.033H18.2675V292.457Z" fill="black"/>
<path d="M328.451 296.032H323.899H319.348V292.457H323.899H328.451H333.003H337.554V296.032H333.003H328.451Z" fill="black"/>
<path d="M45.5777 288.882H41.026V292.457H45.5777V288.882Z" fill="black"/>
<path d="M187.045 288.882H182.493V292.457H187.045V288.882Z" fill="black"/>
<path d="M36.4743 292.457V296.033H31.9226H27.3708V292.457H31.9226V288.882V285.307H36.4743H41.026V288.882H36.4743V292.457Z" fill="black"/>
<path d="M50.1901 285.307H45.6384V288.882H50.1901V285.307Z" fill="black"/>
<path d="M323.899 285.307H319.348V288.882H323.899V285.307Z" fill="black"/>
<path d="M68.397 281.731V285.306H63.8453H59.2936V281.731H63.8453H68.397Z" fill="black"/>
<path d="M77.561 278.156H73.0093V281.731H77.561V278.156Z" fill="black"/>
<path d="M86.6645 278.156H82.1128V281.731H86.6645V278.156Z" fill="black"/>
<path d="M323.899 278.156V274.641V271.065V267.49V263.915H328.451V260.339V256.764H333.003V260.339V263.915V267.49V271.065H328.451V274.641V278.156V281.731V285.306H323.899V281.731V278.156Z" fill="black"/>
<path d="M82.1127 274.641H77.561V278.216H82.1127V274.641Z" fill="black"/>
<path d="M250.89 271.065V267.49H255.442V271.065V274.641H259.993H264.606H269.157H273.709H278.261H282.813H287.364V278.155H282.813V281.731H278.261V278.155H273.709H269.157H264.606H259.993H255.442H250.89V274.641V271.065Z" fill="black"/>
<path d="M95.7679 271.065H91.2162V267.49H95.7679V263.914H100.38V260.339V256.763H104.932V253.188H109.484V256.763V260.339H104.932V263.914V267.49H100.38V271.065H95.7679Z" fill="black"/>
<path d="M182.493 263.915V267.49V271.065V274.641V278.156V281.731V285.306H177.881V281.731V278.156V274.641H173.329V271.065V267.49H177.881V263.915H182.493Z" fill="black"/>
<path d="M246.338 263.915V260.339H250.89V256.764H255.442V260.339V263.915H250.89V267.49H246.338V263.915Z" fill="black"/>
<path d="M182.432 256.764H177.881V260.339H182.432V256.764Z" fill="black"/>
<path d="M246.338 253.188H241.786V256.763H246.338V253.188Z" fill="black"/>
<path d="M259.993 253.188H255.442V256.763H259.993V253.188Z" fill="black"/>
<path d="M323.899 253.188V249.673H328.451V253.188V256.764H323.899V253.188Z" fill="black"/>
<path d="M187.045 253.188V256.764H182.493V253.188V249.674V246.098H187.045V249.674V253.188Z" fill="black"/>
<path d="M314.735 249.673H310.183V253.249H314.735V249.673Z" fill="black"/>
<path d="M264.606 249.674H259.993V246.098H264.606H269.157V249.674H264.606Z" fill="black"/>
<path d="M191.596 242.522H187.045V246.098H191.596V242.522Z" fill="black"/>
<path d="M241.787 242.522V246.098H237.235H232.622V242.522H237.235H241.787Z" fill="black"/>
<path d="M196.148 238.947H200.7V242.523H196.148H191.596V238.947H196.148Z" fill="black"/>
<path d="M269.157 238.947V235.372H273.709V238.947V242.522V246.098H269.157V242.522V238.947Z" fill="black"/>
<path d="M314.735 242.523V238.947H319.348H323.899V242.523H319.348H314.735Z" fill="black"/>
<path d="M223.519 238.947V235.372H228.071H232.622V238.947H228.071H223.519Z" fill="black"/>
<path d="M360.374 231.796V235.372H355.822H351.27H346.719V231.796H351.27V228.221H355.822V231.796H360.374Z" fill="black"/>
<path d="M369.477 231.796H364.925V235.372H369.477V231.796Z" fill="black"/>
<path d="M127.69 228.221H123.139V231.796H127.69V228.221Z" fill="black"/>
<path d="M337.554 231.796V228.221V224.706H342.106V228.221H346.719V231.796H342.106H337.554Z" fill="black"/>
<path d="M364.925 231.797H360.374V228.221H355.822V224.706H351.27V221.131H355.822H360.374V224.706H364.925V228.221V231.797Z" fill="black"/>
<path d="M132.303 224.706V221.13H136.855V217.555V213.98H141.406V210.404H145.958V206.829H150.51V203.314H155.122V199.739V196.163H159.674V199.739V203.314V206.829H155.122V210.404H150.51V213.98H145.958V217.555H141.406V221.13V224.706H136.855V228.221H132.303H127.751V224.706H132.303Z" fill="black"/>
<path d="M287.364 228.221H282.813H278.261V224.706H273.709V221.131H278.261H282.813V224.706H287.364V221.131H291.977V224.706V228.221H287.364Z" fill="black"/>
<path d="M305.632 224.706H301.08V228.281H305.632V224.706Z" fill="black"/>
<path d="M328.451 224.706H323.899V228.281H328.451V224.706Z" fill="black"/>
<path d="M369.477 224.706H374.029V228.221H378.641V224.706V221.131H383.193V224.706V228.221V231.797H378.641H374.029H369.477V228.221V224.706Z" fill="black"/>
<path d="M333.003 221.131H328.451V224.706H333.003V221.131Z" fill="black"/>
<path d="M364.925 221.131V217.555H369.477V213.98V210.404H374.029V213.98V217.555V221.131H369.477V224.706H364.925V221.131Z" fill="black"/>
<path d="M264.606 221.131V217.555H269.157H273.709V221.131H269.157H264.606Z" fill="black"/>
<path d="M305.632 217.555H301.08V221.131V224.706H296.528V221.131V217.555H291.977H287.364V213.98H291.977H296.528H301.08H305.632V210.404H310.183H314.735V213.98H310.183V217.555V221.131H314.735V217.555H319.348V221.131V224.706H314.735V228.221H310.183V224.706H305.632V221.131V217.555Z" fill="black"/>
<path d="M355.822 217.555H351.27V221.131H355.822V217.555Z" fill="black"/>
<path d="M255.442 217.555V213.98H259.993H264.606V217.555H259.993H255.442Z" fill="black"/>
<path d="M250.89 210.404V213.98H246.338H241.786V210.404H246.338H250.89Z" fill="black"/>
<path d="M369.477 206.829H364.925V210.405H369.477V206.829Z" fill="black"/>
<path d="M364.925 203.314H360.374V206.889H364.925V203.314Z" fill="black"/>
<path d="M301.08 199.739H296.528V203.314H301.08V199.739Z" fill="black"/>
<path d="M346.718 203.314H342.106H337.554V199.739H333.003V196.163H337.554H342.106H346.718V199.739H351.27H355.822V203.314H351.27H346.718Z" fill="black"/>
<path d="M296.528 199.739H291.977H287.364H282.812V196.163H287.364H291.977H296.528V199.739Z" fill="black"/>
<path d="M164.226 192.588V189.013H168.777V192.588V196.164H164.226H159.674V192.588H164.226Z" fill="black"/>
<path d="M273.709 196.163H269.157H264.606V192.588H269.157H273.709H278.261H282.813V196.163H278.261H273.709Z" fill="black"/>
<path d="M323.899 196.163H319.348H314.735H310.183H305.632H301.08V192.588H305.632H310.183H314.735H319.348H323.899H328.451H333.003V196.163H328.451H323.899Z" fill="black"/>
<path d="M301.08 189.013H296.528V192.588H301.08V189.013Z" fill="black"/>
<path d="M342.106 192.588V189.012V185.437V181.862H346.718V178.347H351.27V181.862V185.437V189.012V192.588V196.163H346.718V192.588H342.106Z" fill="black"/>
<path d="M173.329 185.437V181.862H177.881V185.437V189.013H173.329H168.777V185.437H173.329Z" fill="black"/>
<path d="M282.812 185.437H287.364V189.012V192.588H282.812V189.012V185.437Z" fill="black"/>
<path d="M182.493 181.862V178.347V174.771H187.045V178.347V181.862V185.437H182.493V181.862Z" fill="black"/>
<path d="M241.787 185.437V189.013V192.588V196.164V199.739V203.314V206.829V210.405H237.235V206.829V203.314V199.739V196.164V192.588V189.013V185.437V181.862H241.787V185.437Z" fill="black"/>
<path d="M301.08 181.862V178.347H305.632V181.862V185.437H301.08V181.862Z" fill="black"/>
<path d="M287.364 174.771H282.812V178.347H287.364V174.771Z" fill="black"/>
<path d="M305.632 171.196V167.62V164.045H310.183V167.62V171.196V174.771H305.632V171.196Z" fill="black"/>
<path d="M200.7 171.196H196.148V167.62V164.045V160.47V156.894V153.379V149.804V146.228V142.653V139.078H200.7V142.653V146.228V149.804V153.379V156.894V160.47V164.045H205.251H209.864V167.62H205.251V171.196H200.7Z" fill="black"/>
<path d="M250.89 167.621V171.196H246.338V174.771H241.786V171.196V167.621H246.338H250.89Z" fill="black"/>
<path d="M282.813 164.045H278.261V167.62H282.813V164.045Z" fill="black"/>
<path d="M218.967 160.47H214.416V164.045H218.967V160.47Z" fill="black"/>
<path d="M255.442 164.045H250.89V160.469H255.442H259.993V156.894H264.606V160.469V164.045H259.993H255.442Z" fill="black"/>
<path d="M273.709 160.47H269.157V164.045H273.709V160.47Z" fill="black"/>
<path d="M191.596 156.894H187.045V160.469H191.596V156.894Z" fill="black"/>
<path d="M223.519 156.894H218.967V160.469H223.519V156.894Z" fill="black"/>
<path d="M314.735 156.894H310.183V160.469H314.735V156.894Z" fill="black"/>
<path d="M232.622 153.379H228.071V156.955H232.622V153.379Z" fill="black"/>
<path d="M319.287 153.379H314.735V156.955H319.287V153.379Z" fill="black"/>
<path d="M342.106 156.894V160.47V164.045V167.621V171.196H337.554V167.621V164.045V160.47V156.894V153.38V149.804H342.106V153.38V156.894Z" fill="black"/>
<path d="M164.226 149.804H168.777V153.38H173.329H177.881H182.493H187.045V156.894H182.493H177.881H173.329H168.777H164.226H159.674H155.122H150.51H145.958V153.38H150.51H155.122H159.674H164.226V149.804Z" fill="black"/>
<path d="M223.519 149.804V146.229H228.071V149.804V153.379H223.519V149.804Z" fill="black"/>
<path d="M237.174 149.804H232.622V153.38H237.174V149.804Z" fill="black"/>
<path d="M241.787 146.229H237.235V149.804H241.787V146.229Z" fill="black"/>
<path d="M323.899 146.229H319.348V149.804H323.899V146.229Z" fill="black"/>
<path d="M346.658 146.229H342.106V149.804H346.658V146.229Z" fill="black"/>
<path d="M246.338 142.653H241.786V146.229H246.338V142.653Z" fill="black"/>
<path d="M223.519 139.078H218.967V142.653H223.519V139.078Z" fill="black"/>
<path d="M250.89 139.078H246.338V142.653H250.89V139.078Z" fill="black"/>
<path d="M150.51 139.078V142.653H155.122V146.229H150.51V149.804H145.958V146.229V142.653H141.406V139.078V135.502H145.958H150.51V139.078Z" fill="black"/>
<path d="M255.442 135.502H250.89V139.078H255.442V135.502Z" fill="black"/>
<path d="M328.451 139.078V142.653H323.899V139.078V135.502H328.451H333.003V139.078H328.451Z" fill="black"/>
<path d="M132.303 131.927V128.412H136.855V131.927V135.502H132.303V131.927Z" fill="black"/>
<path d="M159.674 131.927H155.122V135.502H159.674V131.927Z" fill="black"/>
<path d="M209.864 135.503V131.927V128.412V124.837H214.416V128.412V131.927H218.967V135.503H214.416H209.864Z" fill="black"/>
<path d="M259.993 135.502V131.927H264.606H269.157V135.502H264.606H259.993Z" fill="black"/>
<path d="M364.925 135.503H360.374V131.927H355.822H351.27H346.718H342.106H337.554V135.503H333.003V131.927V128.412H337.554H342.106H346.718H351.27H355.822H360.374V124.837H364.925H369.477H374.029V128.412H378.641V124.837H383.193V128.412V131.927H378.641H374.029H369.477V128.412H364.925V131.927V135.503Z" fill="black"/>
<path d="M241.786 131.927V128.412H246.338H250.89V131.927H246.338H241.786Z" fill="black"/>
<path d="M255.442 128.412V124.837V121.261H259.993V124.837V128.412V131.927H255.442V128.412Z" fill="black"/>
<path d="M123.139 128.412H127.751V131.927H123.139H118.587H114.035H109.484H104.932H100.38H95.7678V128.412H100.38H104.932H109.484V124.837H114.035H118.587H123.139V128.412Z" fill="black"/>
<path d="M392.296 124.837H387.745V128.412H392.296V124.837Z" fill="black"/>
<path d="M100.38 121.261V117.686H104.932V121.261V124.837H100.38V121.261Z" fill="black"/>
<path d="M205.252 121.261H200.7V124.837H205.252V121.261Z" fill="black"/>
<path d="M241.787 117.686H237.235V121.261H241.787V117.686Z" fill="black"/>
<path d="M269.157 117.686V114.11H273.709V110.535V107.02H278.261V110.535V114.11V117.686V121.261V124.837V128.412H273.709V124.837V121.261H269.157V117.686Z" fill="black"/>
<path d="M168.777 114.11H164.225V117.686H168.777V114.11Z" fill="black"/>
<path d="M401.4 117.686V121.261H396.848V117.686V114.11H401.4V117.686Z" fill="black"/>
<path d="M100.38 110.535V107.02V103.445H104.932V107.02V110.535V114.11H100.38V110.535Z" fill="black"/>
<path d="M114.035 110.535H109.484V114.111H114.035V110.535Z" fill="black"/>
<path d="M237.174 110.535H232.622V114.111H237.174V110.535Z" fill="black"/>
<path d="M259.993 114.11V110.535V107.02H264.606V103.445V99.8693H269.157V96.2939V92.7185V89.1431H273.709V92.7185V96.2939V99.8693V103.445H269.157V107.02V110.535H264.606V114.11H259.993Z" fill="black"/>
<path d="M378.641 114.11H374.029H369.477H364.925H360.374H355.822H351.27H346.718H342.106V110.535H346.718V107.02V103.445V99.8694V96.2939H351.27V99.8694V103.445V107.02V110.535H355.822H360.374V107.02H364.925V103.445H369.477V107.02V110.535H374.029V107.02V103.445H369.477V99.8694H374.029H378.641V96.2939H383.193V99.8694V103.445H378.641V107.02H383.193H387.745V110.535H392.296V107.02V103.445V99.8694H396.848V96.2939H401.4V99.8694V103.445H396.848V107.02V110.535V114.11H392.296H387.745H383.193H378.641Z" fill="black"/>
<path d="M173.329 107.02H168.777V110.595H173.329V107.02Z" fill="black"/>
<path d="M342.106 107.02H337.554V110.595H342.106V107.02Z" fill="black"/>
<path d="M337.554 103.445H333.003V107.02H337.554V103.445Z" fill="black"/>
<path d="M360.373 103.445H355.822V107.02H360.373V103.445Z" fill="black"/>
<path d="M392.296 103.445H387.745V107.02H392.296V103.445Z" fill="black"/>
<path d="M182.493 103.445H177.881V99.8694V96.2939H182.493V99.8694V103.445Z" fill="black"/>
<path d="M205.252 103.445V107.02V110.535H209.864V114.11H205.252H200.7V110.535V107.02V103.445V99.8691H205.252V103.445Z" fill="black"/>
<path d="M232.622 103.445V107.02H228.071V103.445H223.519V99.8694V96.2939H228.071V99.8694H232.622V103.445Z" fill="black"/>
<path d="M392.296 96.2939H387.745V99.8694H392.296V96.2939Z" fill="black"/>
<path d="M100.38 92.7188V96.2942H95.7679H91.2162V92.7188H95.7679H100.38Z" fill="black"/>
<path d="M127.69 92.7188H123.139V96.2942H127.69V92.7188Z" fill="black"/>
<path d="M187.045 92.7188H182.493V96.2942H187.045V92.7188Z" fill="black"/>
<path d="M259.993 92.7185V89.1431H264.606V92.7185V96.2939H259.993V92.7185Z" fill="black"/>
<path d="M392.296 92.7187V89.1433H387.744V92.7187V96.2941H383.193V92.7187V89.1433H378.641V92.7187H374.029V89.1433H369.477H364.925V92.7187V96.2941H360.374V92.7187H355.822V96.2941H351.27V92.7187V89.1433H346.718V92.7187V96.2941H342.106V92.7187V89.1433H337.554H333.003V92.7187V96.2941H328.451V92.7187V89.1433V85.5679H333.003H337.554H342.106H346.718H351.27H355.822H360.374H364.925H369.477H374.029H378.641H383.193H387.744H392.296H396.848H401.4H406.012H410.564V89.1433H406.012H401.4H396.848V92.7187V96.2941H392.296V92.7187Z" fill="black"/>
<path d="M405.951 92.7188H401.4V96.2942H405.951V92.7188Z" fill="black"/>
<path d="M91.2161 89.1431H86.6644V92.7185H91.2161V89.1431Z" fill="black"/>
<path d="M86.6644 85.5679V89.1433H82.1127H77.561H73.0093V85.5679H77.561H82.1127H86.6644Z" fill="black"/>
<path d="M191.596 85.5679H187.045V89.1433H191.596V85.5679Z" fill="black"/>
<path d="M223.519 85.5679H218.967V89.1433H223.519V85.5679Z" fill="black"/>
<path d="M63.8452 85.5678H59.2935H54.7418H50.1901V82.053V78.4775H54.7418V82.053H59.2935H63.8452H68.3969H73.0093V85.5678H68.3969H63.8452Z" fill="black"/>
<path d="M196.148 82.0527H191.596V85.6282H196.148V82.0527Z" fill="black"/>
<path d="M246.338 82.0527H241.786V85.6282H246.338V82.0527Z" fill="black"/>
<path d="M86.6644 78.4773V74.9019H91.2161V78.4773V82.0527H86.6644V78.4773Z" fill="black"/>
<path d="M141.406 82.053V85.5678H136.855V82.053V78.4775H141.406V82.053Z" fill="black"/>
<path d="M406.012 78.4775V74.9021V71.3267H410.564V74.9021V78.4775V82.0529H406.012V78.4775Z" fill="black"/>
<path d="M59.2935 74.9019H54.7418V78.4773H59.2935V74.9019Z" fill="black"/>
<path d="M374.029 74.9019V78.4773H369.477H364.925V74.9019H369.477H374.029Z" fill="black"/>
<path d="M396.848 74.9019V78.4773H392.296H387.745V74.9019H392.296H396.848Z" fill="black"/>
<path d="M63.8453 71.3266V67.7512V64.1758H68.397H73.0094V67.7512H68.397V71.3266V74.902H63.8453H59.2936V71.3266H63.8453Z" fill="black"/>
<path d="M100.32 71.3267H95.7678V74.9021H100.32V71.3267Z" fill="black"/>
<path d="M155.061 67.751H150.51V71.3264H155.061V67.751Z" fill="black"/>
<path d="M255.442 71.3264V67.7509V64.1755H259.993H264.606H269.157V60.6001H273.709V64.1755V67.7509V71.3264V74.9018V78.4772H269.157V74.9018V71.3264V67.7509H264.606H259.993V71.3264H255.442Z" fill="black"/>
<path d="M328.451 71.3267H323.899H319.348V67.7513H314.735H310.183H305.632V64.1759V60.6005V57.0856V53.5102H301.08V49.9348V46.3594H305.632V49.9348H310.183H314.735V53.5102H310.183V57.0856V60.6005V64.1759H314.735H319.348V60.6005H323.899V64.1759H328.451V67.7513V71.3267Z" fill="black"/>
<path d="M401.4 67.7512V64.1758H406.012V67.7512V71.3266H401.4V67.7512Z" fill="black"/>
<path d="M109.484 64.1758H104.932V67.7512H109.484V64.1758Z" fill="black"/>
<path d="M159.674 64.1758H155.122V67.7512H159.674V64.1758Z" fill="black"/>
<path d="M205.252 67.7512V71.3266V74.902V78.4775V82.0529V85.5677V89.1431V92.7185V96.294H200.7V92.7185V89.1431V85.5677V82.0529V78.4775V74.902V71.3266V67.7512V64.1758H205.252V67.7512Z" fill="black"/>
<path d="M218.967 67.7512V71.3266H214.416V67.7512V64.1758H218.967V67.7512Z" fill="black"/>
<path d="M396.848 60.6003V57.0854H401.4V60.6003V64.1757H396.848V60.6003Z" fill="black"/>
<path d="M77.561 57.0854H73.0093V60.6609H77.561V57.0854Z" fill="black"/>
<path d="M205.252 57.0854H200.7V60.6609H205.252V57.0854Z" fill="black"/>
<path d="M259.993 57.0854H255.442V60.6609H259.993V57.0854Z" fill="black"/>
<path d="M323.899 60.6005V57.0857H319.348H314.735V53.5103H319.348H323.899H328.451H333.003H337.554H342.106V57.0857H337.554V60.6005H333.003V64.1759H328.451V60.6005H323.899Z" fill="black"/>
<path d="M392.296 60.6005H387.745V57.0857H383.193V53.5103H387.745H392.296H396.848V57.0857H392.296V60.6005Z" fill="black"/>
<path d="M255.442 53.5103H250.89V57.0857H255.442V53.5103Z" fill="black"/>
<path d="M86.6645 49.9346H82.1128V53.51H86.6645V49.9346Z" fill="black"/>
<path d="M145.958 49.9346H141.406V53.51H145.958V49.9346Z" fill="black"/>
<path d="M191.596 49.9346H187.045V53.51H191.596V49.9346Z" fill="black"/>
<path d="M241.787 49.9346H237.235V53.51H241.787V49.9346Z" fill="black"/>
<path d="M273.709 49.9346H269.157V53.51H273.709V49.9346Z" fill="black"/>
<path d="M374.029 53.5102H369.477H364.925H360.373H355.822V49.9348V46.3594H360.373H364.925H369.477V49.9348H374.029H378.641H383.193V53.5102H378.641H374.029Z" fill="black"/>
<path d="M155.061 46.3594H150.51V49.9348H155.061V46.3594Z" fill="black"/>
<path d="M205.251 46.3594V49.9348H200.7H196.148V46.3594H200.7H205.251Z" fill="black"/>
<path d="M104.932 42.7837V46.3591H100.38H95.7678V49.9345H91.2161H86.6644V46.3591H91.2161V42.7837H95.7678H100.38H104.932Z" fill="black"/>
<path d="M182.493 42.7837H187.045H191.596V46.3591H187.045H182.493H177.881H173.329V42.7837H177.881H182.493Z" fill="black"/>
<path d="M218.967 46.3591V49.9345V53.51V57.0854V60.6002H214.416V57.0854V53.51V49.9345V46.3591V42.7837H218.967V46.3591Z" fill="black"/>
<path d="M246.338 42.7837V46.3591V49.9345H241.787V46.3591H237.235V42.7837H241.787H246.338Z" fill="black"/>
<path d="M278.261 46.3592H273.709V42.7838H269.157H264.606V46.3592H259.993H255.442V42.7838H259.993V39.2084H255.442V35.6936H259.993H264.606H269.157V39.2084H273.709H278.261V35.6936H282.813V32.1182H287.364V35.6936V39.2084H282.813V42.7838H278.261V46.3592Z" fill="black"/>
<path d="M346.718 42.784H342.106V46.3595H337.554V42.784H333.003V39.2086H337.554H342.106V35.6938V32.1184V28.543H346.718V32.1184V35.6938V39.2086H351.27V42.784V46.3595H346.718V42.784Z" fill="black"/>
<path d="M250.89 39.2085H246.338V42.7839H250.89V39.2085Z" fill="black"/>
<path d="M104.932 39.2082H100.38V35.6934H104.932H109.484V39.2082H104.932Z" fill="black"/>
<path d="M218.967 35.6934H214.416V39.2688H218.967V35.6934Z" fill="black"/>
<path d="M333.003 35.6934H328.451V39.2688H333.003V35.6934Z" fill="black"/>
<path d="M114.035 32.1182H109.484V35.6936H114.035V32.1182Z" fill="black"/>
<path d="M232.622 32.1182V35.6936H228.071H223.519V32.1182H228.071H232.622Z" fill="black"/>
<path d="M246.338 35.6936H241.786V32.1182H246.338H250.89H255.442V35.6936H250.89H246.338Z" fill="black"/>
<path d="M278.261 32.1182H273.709V35.6936H278.261V32.1182Z" fill="black"/>
<path d="M305.632 32.1182V35.6936H301.08H296.528V32.1182H301.08H305.632Z" fill="black"/>
<path d="M314.735 28.543H310.183V32.1184H314.735V28.543Z" fill="black"/>
<path d="M323.899 28.543V32.1184V35.6938H319.348H314.735V32.1184H319.348V28.543H323.899Z" fill="black"/>
<path d="M127.751 28.5427H123.139V24.9673H127.751H132.303V28.5427H127.751Z" fill="black"/>
<path d="M287.364 24.9673H282.812V28.5427H287.364V24.9673Z" fill="black"/>
<path d="M310.183 24.9673H305.632V28.5427H310.183V24.9673Z" fill="black"/>
<path d="M136.855 21.3921H132.303V24.9675H136.855V21.3921Z" fill="black"/>
<path d="M141.406 21.3918V17.8164H145.958V21.3918V24.9672H141.406V21.3918Z" fill="black"/>
<path d="M223.519 21.3921H218.967V24.9675H223.519V21.3921Z" fill="black"/>
<path d="M333.003 21.3921V24.9675H328.451H323.899V21.3921H328.451H333.003Z" fill="black"/>
<path d="M337.554 21.3918V17.8164H342.106V21.3918V24.9672H337.554V21.3918Z" fill="black"/>
<path d="M150.51 17.8166V14.2412H155.122V17.8166V21.392H150.51V17.8166Z" fill="black"/>
<path d="M209.864 21.3918V17.8164H214.416H218.967V21.3918H214.416H209.864Z" fill="black"/>
<path d="M305.632 17.8164H301.08V21.3918H305.632V17.8164Z" fill="black"/>
<path d="M187.045 17.8163H182.493H177.881H173.329H168.777H164.225V14.2409H168.777H173.329H177.881H182.493H187.045H191.596V10.7261H196.148V14.2409V17.8163H191.596H187.045Z" fill="black"/>
<path d="M205.252 17.8163H200.7V14.2409V10.7261H205.252V14.2409V17.8163Z" fill="black"/>
<path d="M287.364 17.8166V21.392H282.813V24.9675H278.261V28.5429H273.709V24.9675V21.392V17.8166H278.261H282.813V14.2412H287.364V17.8166Z" fill="black"/>
<path d="M333.003 17.8165H328.451V14.2411V10.7263V7.15088H333.003H337.554V10.7263V14.2411H333.003V17.8165Z" fill="black"/>
<path d="M214.416 10.726H209.864H205.251V7.15062H209.864V3.5752H214.416H218.967V7.15062H214.416V10.726Z" fill="black"/>
<path d="M282.813 10.726V14.2409H278.261V10.726H273.709H269.157V7.15062H264.606H259.993H255.442H250.89H246.338H241.787H237.235H232.622H228.071H223.519V3.5752H228.071H232.622H237.235H241.787H246.338H250.89H255.442H259.993H264.606H269.157H273.709H278.261H282.813H287.364V7.15062H291.977V10.726H287.364H282.813Z" fill="black"/>
<path d="M333.003 0H328.451V3.57542H333.003V0Z" fill="black"/>
<path d="M360.373 228.221H355.822V231.796H360.373V228.221Z" fill="white"/>
<path d="M305.632 221.131V224.706H301.08V221.131V217.555H305.632V221.131Z" fill="white"/>
<path d="M392.296 107.02H387.745V110.595H392.296V107.02Z" fill="white"/>
<path d="M396.848 96.2939H392.296V99.8694H396.848V96.2939Z" fill="white"/>
<path d="M383.193 92.7183H378.641V96.2937H383.193V92.7183Z" fill="white"/>
<path d="M328.451 60.6001H323.899V64.1755H328.451V60.6001Z" fill="white"/>
<path d="M314.735 57.0857H319.348H323.899V60.6005H319.348V64.1759H314.735H310.183V60.6005V57.0857V53.5103H314.735V57.0857Z" fill="white"/>
<path d="M264.606 313.849H269.157V310.273H273.709V313.849H278.261V317.424H273.709H269.157H264.606H259.993V313.849H264.606Z" fill="white"/>
<path d="M346.718 306.698V303.123H351.27V306.698H355.822V310.274H351.27H346.718H342.106H337.554V306.698H342.106H346.718Z" fill="white"/>
<path d="M369.477 224.706H364.925V228.281H369.477V224.706Z" fill="white"/>
<path d="M314.735 217.555V221.13H310.183V217.555V213.979H314.735V217.555Z" fill="white"/>
<path d="M351.27 92.7183H346.718V96.2937H351.27V92.7183Z" fill="white"/>
<path d="M369.477 92.7183H364.925V96.2937H369.477V92.7183Z" fill="white"/>
<path d="M401.4 92.7183H396.848V96.2937H401.4V92.7183Z" fill="white"/>
<path d="M278.261 32.1181V28.5427V24.9673H282.812V28.5427V32.1181V35.6935H278.261V32.1181Z" fill="white"/>
<path d="M447.159 113.383H596.637V134.775H618V147.501H478.718V142.653H468.097V128.291H447.159V113.383Z" fill="#F5BC2A"/>
<path d="M478.718 147.501H618V174.347H566.232V186.831H514.768V175.378H480.964V164.348H478.718V147.501Z" fill="#EC7B2D"/>
<path d="M514.767 186.831V175.377H480.963V169.257H618V174.347H566.232V186.831H514.767Z" fill="#B03626"/>
<path d="M514.767 177.802V175.378H511.126V173.438H486.608V170.832H480.963V164.348H480.599V158.167H493.101V154.228H497.107V167.742H511.126V159.015H518.105V165.56H530.607V158.167H542.138V152.046H546.629V156.834H550.635V163.803H559.131V156.834H570.116V165.56H578.613V154.228H594.574V159.015H608.108V166.893H618V174.347H599.611V170.832H590.083V174.347H583.104V173.438H567.628V174.347H566.232V180.407H560.102V173.863H545.598V181.741H534.613V176.044H525.145V177.802H514.767Z" fill="#B03626"/>
<path d="M546.872 164.348H540.257V170.045H546.872V164.348Z" fill="#EC7B2D"/>
<path d="M532.003 168.772H525.388V174.468H532.003V168.772Z" fill="#EC7B2D"/>
<path d="M491.584 160.894H484.969V166.59H491.584V160.894Z" fill="#EC7B2D"/>
<path d="M498.139 169.257H491.523V174.953H498.139V169.257Z" fill="#EC7B2D"/>
<path d="M560.102 169.984H553.487V175.68H560.102V169.984Z" fill="#EC7B2D"/>
<path d="M583.104 170.408H576.489V174.347H583.104V170.408Z" fill="#EC7B2D"/>
<path d="M594.756 158.652H588.141V164.348H594.756V158.652Z" fill="#EC7B2D"/>
<path d="M612.113 166.711H605.498V172.408H612.113V166.711Z" fill="#EC7B2D"/>
<path d="M468.097 128.291H460.633V123.201H477.14V131.927H486.122V136.29H497.592V130.594H501.598V133.2H513.129V119.262H523.628V126.231H539.104V131.018H561.62V143.259H571.633V126.231H584.621V132.351H596.637V134.775H601.614V141.078H618V147.501H605.073V150.35H597.123V147.501H587.595V150.35H579.584V147.501H573.879V151.986H565.868V147.501H557.129V150.774H549.118V147.501H533.338V150.471H525.388V147.501H502.144V151.986H494.133V147.501H485.879V150.471H478.718V142.653H468.097V128.291Z" fill="#EF902D"/>
<path d="M393.024 86.1128H542.442V107.505H563.804V120.231H424.583V115.383H413.962V100.96H393.024V86.1128Z" fill="#F5BC2A"/>
<path d="M424.583 120.231H563.804V147.077H512.097V159.561H460.632V148.107H426.828V137.078H424.583V120.231Z" fill="#EC7B2D"/>
<path d="M460.632 159.56V148.107H426.828V141.986H563.804V147.077H512.097V159.56H460.632Z" fill="#B03626"/>
<path d="M460.632 150.531V148.107H456.991V146.168H432.472V143.501H426.828V137.078H426.464V130.836H438.966V126.897H442.972V140.471H456.991V131.745H463.97V138.29H476.472V130.836H487.943V124.715H492.434V129.503H496.439V136.532H504.936V129.503H515.981V138.29H524.478V126.897H540.439V131.745H553.973V139.562H563.804V147.077H545.476V143.501H535.948V147.077H528.969V146.168H513.432V147.077H512.097V153.137H505.967V146.592H491.463V154.47H480.478V148.774H470.95V150.531H460.632Z" fill="#B03626"/>
<path d="M492.676 137.017H486.061V142.714H492.676V137.017Z" fill="#EC7B2D"/>
<path d="M477.808 141.501H471.192V147.198H477.808V141.501Z" fill="#EC7B2D"/>
<path d="M437.388 133.624H430.773V139.32H437.388V133.624Z" fill="#EC7B2D"/>
<path d="M443.943 141.986H437.328V147.683H443.943V141.986Z" fill="#EC7B2D"/>
<path d="M505.967 142.713H499.352V148.41H505.967V142.713Z" fill="#EC7B2D"/>
<path d="M528.969 143.138H522.354V147.077H528.969V143.138Z" fill="#EC7B2D"/>
<path d="M540.621 131.321H534.006V137.017H540.621V131.321Z" fill="#EC7B2D"/>
<path d="M557.917 139.441H551.302V145.138H557.917V139.441Z" fill="#EC7B2D"/>
<path d="M413.962 100.96H406.497V95.8697H422.944V104.596H431.987V108.959H443.457V103.324H447.463V105.929H458.994V91.9307H469.432V98.9603H484.969V103.748H507.485V115.989H517.438V98.9603H530.425V105.081H542.442V107.505H547.418V113.807H563.804V120.231H550.938V123.019H542.927V120.231H533.46V123.019H525.449V120.231H519.683V124.655H511.733V120.231H502.933V123.503H494.983V120.231H479.203V123.2H471.192V120.231H447.948V124.655H439.998V120.231H431.744V123.2H424.583V115.383H413.962V100.96Z" fill="#EF902D"/>
<path d="M406.073 80.1741H406.497V68.357H422.944V77.0834H431.987V81.5073H443.457V75.8108H447.463V78.4166H458.994V64.418H469.432V71.4476H484.969V76.235H507.485V88.4763H517.438V71.4476H530.425V77.5682H542.442V92.7183H519.683V97.2027H511.733V92.7183H502.933V95.9907H494.983V92.7183H479.203V95.6877H471.192V92.7183H447.948V97.2027H439.998V92.7183H431.744V95.6877H423.733V92.7183H402.492V97.2027H394.481V92.7183H393.024V83.8707H406.073V80.1741Z" fill="#FDE928"/>
</g>
<defs>
<clipPath id="clip0_25_149">
<rect width="618" height="321" fill="white"/>
</clipPath>
</defs>
</svg>
