<svg width="394" height="454" viewBox="0 0 394 454" fill="none" xmlns="http://www.w3.org/2000/svg">
<path d="M265.397 321.321H120.958V344.253H131.606V361.179H143.347V379.743H149.9V415.78H165.464V439.531H178.024V454H208.058V439.531H224.714V415.78H236.182V379.743H243.008V361.179H254.748V344.253H265.397V321.321Z" fill="#EA4325"/>
<path d="M233.724 321.321H152.631V344.253H158.638V361.179H165.191V379.743H169.013V415.78H177.477V439.531H184.577V454H201.505V439.531H210.789V415.78H217.342V379.743H221.164V361.179H227.717V344.253H233.724V321.321Z" fill="#FFE500"/>
<path d="M208.877 321.321H177.478V344.253H179.662V361.179H182.119V379.743H183.758V415.78H187.034V439.531H189.764V454H196.317V439.531H199.867V415.78H202.597V379.743H203.963V361.179H206.42V344.253H208.877V321.321Z" fill="#FFF8AC"/>
<path d="M139.252 371.554H126.419V384.385H139.252V371.554Z" fill="#EA4325"/>
<path d="M156.18 433.524H149.627V440.076H156.18V433.524Z" fill="#EA4325"/>
<path d="M142.528 394.485H135.702V401.31H142.528V394.485Z" fill="#FFE500"/>
<path d="M259.936 371.554H247.103V384.385H259.936V371.554Z" fill="#EA4325"/>
<path d="M236.728 433.524H230.175V440.076H236.728V433.524Z" fill="#EA4325"/>
<path d="M250.38 394.485H243.554V401.31H250.38V394.485Z" fill="#FFE500"/>
<path d="M34.1303 100.464H0V221.949H34.1303V100.464Z" fill="#2E498F"/>
<path d="M34.1303 146.874H0V221.949H34.1303V146.874Z" fill="#F47723"/>
<path d="M394.273 100.464H360.143V221.949H394.273V100.464Z" fill="#2E498F"/>
<path d="M394.273 146.874H360.143V221.949H394.273V146.874Z" fill="#F47723"/>
<path d="M108.881 285.322L108.626 325.727L282.554 326.827L282.809 286.423L108.881 285.322Z" fill="#2E498F"/>
<path d="M286.421 316.681L103.483 315.589L105.121 78.3516L287.787 79.4436L286.421 316.681Z" fill="#F79221"/>
<path d="M286.421 316.681L193.86 316.135L195.225 78.8975L287.787 79.4435L286.421 316.681Z" fill="#F47723"/>
<path d="M254.475 259.624L136.248 258.805L137.613 36.0361L255.841 36.8551L254.475 259.624Z" fill="#FFC214"/>
<path d="M225.806 211.029L165.464 210.756L166.829 0L227.171 0.273001L225.806 211.029Z" fill="#FFDF00"/>
<path d="M244.373 95.5498H231.267L231.54 77.8048L199.048 77.5318H197.956L165.464 77.2588V95.0038H148.535L148.262 129.402L165.191 129.675V147.147L197.683 147.42H198.502L230.994 147.693V129.948H244.1L244.373 95.5498Z" fill="#B7E1DE"/>
<path d="M179.332 157.941L212.643 158.146L212.922 113.101L179.611 112.896L179.332 157.941Z" fill="#B7E1DE"/>
<path d="M179.643 111.905L212.954 112.11L213.232 67.0653L179.921 66.8601L179.643 111.905Z" fill="#B7E1DE"/>
<path d="M214.065 93.0929H207.785V84.6299H192.495H191.949H176.658V92.8199H168.467V109.2H176.385V117.663H191.949H192.222L207.785 117.936V109.473H213.792L214.065 93.0929Z" fill="white"/>
<path d="M6.40272 247.128L27.1539 247.256L27.5315 186.104L6.78033 185.976L6.40272 247.128Z" fill="#76CBC8"/>
<path d="M22.7701 253.075L47.6169 253.229L48.0689 180.064L23.2221 179.911L22.7701 253.075Z" fill="#3ABDAA"/>
<path d="M46.3144 175.222L45.7891 258.214L82.3767 258.445L82.902 175.453L46.3144 175.222Z" fill="#00639F"/>
<path d="M57.5165 282.432L77.9946 282.558L78.8017 151.517L58.3235 151.391L57.5165 282.432Z" fill="#76CBC8"/>
<path d="M73.2664 295.198L97.8402 295.35L98.8053 138.92L74.2315 138.769L73.2664 295.198Z" fill="#2E498F"/>
<path d="M97.5716 128.243L96.4463 305.967L132.488 306.195L133.613 128.472L97.5716 128.243Z" fill="#F47723"/>
<path d="M384.913 188.164L364.162 188.036L363.784 249.188L384.535 249.316L384.913 188.164Z" fill="#76CBC8"/>
<path d="M368.839 182.172L343.992 182.019L343.541 255.183L368.388 255.336L368.839 182.172Z" fill="#3ABDAA"/>
<path d="M308.871 176.98L308.346 259.973L344.934 260.204L345.459 177.212L308.871 176.98Z" fill="#00639F"/>
<path d="M333.795 152.947L313.316 152.821L312.509 283.862L332.988 283.988L333.795 152.947Z" fill="#76CBC8"/>
<path d="M318.037 140.13L293.463 139.979L292.498 296.408L317.072 296.559L318.037 140.13Z" fill="#2E498F"/>
<path d="M259.033 129.234L257.908 306.957L293.949 307.185L295.074 129.462L259.033 129.234Z" fill="#F47723"/>
</svg>
