<svg width="241" height="641" viewBox="0 0 241 641" fill="none" xmlns="http://www.w3.org/2000/svg">
<g clip-path="url(#clip0_25_1103)">
<path d="M90.444 54.1729H84.3777V65.1724H90.444V54.1729Z" fill="#565D5F"/>
<path d="M90.444 65.1724H84.3777V76.1719H90.444V65.1724Z" fill="#4D5556"/>
<path d="M90.444 76.1719H84.3777V87.1714H90.444V76.1719Z" fill="#444C4C"/>
<path d="M90.444 86.8965H84.3777V97.896H90.444V86.8965Z" fill="#3A4243"/>
<path d="M90.444 97.896H84.3777V108.621H90.444V97.896Z" fill="#2F3737"/>
<path d="M90.444 108.621H84.3777V119.62H90.444V108.621Z" fill="#282F2F"/>
<path d="M90.444 119.345H84.3777V130.345H90.444V119.345Z" fill="#1A2120"/>
<path d="M90.444 130.345H84.3777V141.344H90.444V130.345Z" fill="#222122"/>
<path d="M96.5102 43.4482H90.4438V54.4478H96.5102V43.4482Z" fill="#575E60"/>
<path d="M96.5102 54.1729H90.4438V65.1724H96.5102V54.1729Z" fill="#575E60"/>
<path d="M96.5102 65.1724H90.4438V76.1719H96.5102V65.1724Z" fill="#575E60"/>
<path d="M96.5102 76.1719H90.4438V87.1714H96.5102V76.1719Z" fill="#575E60"/>
<path d="M96.5102 86.8965H90.4438V97.896H96.5102V86.8965Z" fill="#575E60"/>
<path d="M96.5102 97.896H90.4438V108.621H96.5102V97.896Z" fill="#575E60"/>
<path d="M96.5102 108.621H90.4438V119.62H96.5102V108.621Z" fill="#575E60"/>
<path d="M96.5102 119.345H90.4438V130.345H96.5102V119.345Z" fill="#575E60"/>
<path d="M96.5102 130.345H90.4438V141.344H96.5102V130.345Z" fill="#575E60"/>
<path d="M96.5102 141.345H90.4438V152.344H96.5102V141.345Z" fill="#575E60"/>
<path d="M96.5102 152.069H90.4438V163.068H96.5102V152.069Z" fill="#575E60"/>
<path d="M96.5102 163.069H90.4438V174.068H96.5102V163.069Z" fill="#575E60"/>
<path d="M96.5102 173.793H90.4438V184.793H96.5102V173.793Z" fill="#575E60"/>
<path d="M96.5102 184.793H90.4438V195.518H96.5102V184.793Z" fill="#575E60"/>
<path d="M96.5102 195.518H90.4438V206.517H96.5102V195.518Z" fill="#575E60"/>
<path d="M96.5102 206.517H90.4438V217.517H96.5102V206.517Z" fill="#575E60"/>
<path d="M96.5102 217.242H90.4438V228.241H96.5102V217.242Z" fill="#575E60"/>
<path d="M96.5102 228.241H90.4438V239.241H96.5102V228.241Z" fill="#565D5F"/>
<path d="M96.5102 238.966H90.4438V249.965H96.5102V238.966Z" fill="#505759"/>
<path d="M96.5102 249.965H90.4438V260.965H96.5102V249.965Z" fill="#464E4F"/>
<path d="M96.5102 260.69H90.4438V271.69H96.5102V260.69Z" fill="#3D4445"/>
<path d="M96.5102 271.689H90.4438V282.414H96.5102V271.689Z" fill="#333A3A"/>
<path d="M96.5102 282.414H90.4438V293.414H96.5102V282.414Z" fill="#282F2F"/>
<path d="M96.5102 293.414H90.4438V304.413H96.5102V293.414Z" fill="#1B2322"/>
<path d="M96.5102 304.138H90.4438V315.138H96.5102V304.138Z" fill="#252526"/>
<path d="M102.577 32.4487H96.5103V43.4483H102.577V32.4487Z" fill="#575E60"/>
<path d="M102.577 43.4482H96.5103V54.4478H102.577V43.4482Z" fill="#575E60"/>
<path d="M102.577 54.1729H96.5103V65.1724H102.577V54.1729Z" fill="#575E60"/>
<path d="M102.577 65.1724H96.5103V76.1719H102.577V65.1724Z" fill="#575E60"/>
<path d="M102.577 76.1719H96.5103V87.1714H102.577V76.1719Z" fill="#575E60"/>
<path d="M102.577 86.8965H96.5103V97.896H102.577V86.8965Z" fill="#575E60"/>
<path d="M102.577 97.896H96.5103V108.621H102.577V97.896Z" fill="#575E60"/>
<path d="M102.577 108.621H96.5103V119.62H102.577V108.621Z" fill="#575E60"/>
<path d="M102.577 119.345H96.5103V130.345H102.577V119.345Z" fill="#575E60"/>
<path d="M102.577 130.345H96.5103V141.344H102.577V130.345Z" fill="#575E60"/>
<path d="M102.577 380.31H96.5103V391.31H102.577V380.31Z" fill="#575E60"/>
<path d="M102.577 391.035H96.5103V402.034H102.577V391.035Z" fill="#575E60"/>
<path d="M102.577 402.034H96.5103V413.034H102.577V402.034Z" fill="#575E60"/>
<path d="M102.577 412.759H96.5103V423.758H102.577V412.759Z" fill="#444C4C"/>
<path d="M108.367 21.7241H102.301V32.4487H108.367V21.7241Z" fill="#4A5253"/>
<path d="M108.367 32.4487H102.301V43.4483H108.367V32.4487Z" fill="#575E60"/>
<path d="M108.367 43.4482H102.301V54.4478H108.367V43.4482Z" fill="#575E60"/>
<path d="M108.367 54.1729H102.301V65.1724H108.367V54.1729Z" fill="#575E60"/>
<path d="M108.367 65.1724H102.301V76.1719H108.367V65.1724Z" fill="#575E60"/>
<path d="M108.367 76.1719H102.301V87.1714H108.367V76.1719Z" fill="#575E60"/>
<path d="M108.367 456.207H102.301V467.207H108.367V456.207Z" fill="#29302D"/>
<path d="M108.367 499.655H102.301V510.655H108.367V499.655Z" fill="#1C1F1D"/>
<path d="M108.367 510.655H102.301V521.655H108.367V510.655Z" fill="#403829"/>
<path d="M108.367 619.276H102.301V630.275H108.367V619.276Z" fill="#252526"/>
<path d="M114.434 10.7246H108.367V21.7242H114.434V10.7246Z" fill="#1B2322"/>
<path d="M114.434 21.7241H108.367V32.4487H114.434V21.7241Z" fill="#575E60"/>
<path d="M114.434 32.4487H108.367V43.4483H114.434V32.4487Z" fill="#575E60"/>
<path d="M114.434 43.4482H108.367V54.4478H114.434V43.4482Z" fill="#575E60"/>
<path d="M120.5 10.7246H114.434V21.7242H120.5V10.7246Z" fill="#575E60"/>
<path d="M120.5 21.7241H114.434V32.4487H120.5V21.7241Z" fill="#575E60"/>
<path d="M120.5 391.035H114.434V402.034H120.5V391.035Z" fill="#454D4E"/>
<path d="M126.566 456.207H120.5V467.207H126.566V456.207Z" fill="#533C24"/>
<path d="M132.633 10.7246H126.566V21.7242H132.633V10.7246Z" fill="#1B2322"/>
<path d="M114.434 412.759H108.367V423.758H114.434V412.759Z" fill="#6D3E20"/>
<path d="M126.566 467.207H132.633V477.931V488.931V499.655H126.566H120.5H114.434H108.367H102.301V488.931V477.931H108.367V467.207H114.434V456.207H120.5V467.207H126.566Z" fill="#6D3E20"/>
<path d="M132.633 532.379V543.104V554.103H126.566H120.5H114.434H108.367H102.301V543.104V532.379V521.379H108.367V510.655H114.434H120.5H126.566H132.633V521.379V532.379Z" fill="#6D3E20"/>
<path d="M132.633 586.552V597.551H126.566H120.5H114.434H108.367H102.301V586.552V575.827V564.828H108.367H114.434H120.5H126.566H132.633V575.827V586.552Z" fill="#6D3E20"/>
<path d="M132.633 630H126.566V641H132.633V630Z" fill="#252526"/>
<path d="M126.566 412.759H132.633V423.758H138.699V434.483V445.482H132.633H126.566H120.5H114.434V456.207H108.367H102.301H96.5103H90.444H84.3776H78.3113H72.2449H66.1785V467.207H60.3879H54.3216V477.931H48.2552H42.1888H36.1225H30.0561H23.9897H18.1991H12.1328H6.06641V467.207V456.207H12.1328V445.482H18.1991H23.9897H30.0561H36.1225H42.1888H48.2552H54.3216H60.3879H66.1785H72.2449H78.3113H84.3776H90.444H96.5103V434.483H102.301V423.758H108.367H114.434V412.759H120.5V402.034H126.566V412.759Z" fill="#EE9031"/>
<path d="M138.699 608.276H132.633V619.276H138.699V608.276Z" fill="#222122"/>
<path d="M150.556 32.4487H144.49V43.4483H150.556V32.4487Z" fill="#1F2626"/>
<path d="M150.556 173.793H144.49V184.793H150.556V173.793Z" fill="#C5C9CF"/>
<path d="M150.556 304.138H144.49V315.138H150.556V304.138Z" fill="#586062"/>
<path d="M150.556 315.138H144.49V326.137H150.556V315.138Z" fill="#464E4F"/>
<path d="M150.556 325.862H144.49V336.862H150.556V325.862Z" fill="#333A3A"/>
<path d="M150.556 336.862H144.49V347.861H150.556V336.862Z" fill="#1A2120"/>
<path d="M156.623 43.4482H150.556V54.4478H156.623V43.4482Z" fill="#424A4A"/>
<path d="M126.566 21.7242H132.633H138.699V32.4488H144.49V43.4483H138.699H132.633V54.1729V65.1725V76.1721V86.8966V97.8962H126.566V108.621V119.345V130.345V141.345V152.069V163.069V173.793V184.793V195.517V206.517V217.242V228.241V238.966V249.965V260.69V271.689V282.414V293.414V304.138V315.138V325.862V336.862V347.586V358.586V369.311V380.31V391.035H120.5H114.434V402.034H108.367V412.759H102.301V402.034V391.035V380.31H96.5103V369.311V358.586V347.586V336.862V325.862V315.138V304.138V293.414V282.414V271.689V260.69V249.965V238.966V228.241V217.242V206.517V195.517V184.793V173.793V163.069V152.069V141.345H102.301V130.345V119.345V108.621V97.8962V86.8966H108.367V76.1721V65.1725V54.1729H114.434V43.4483V32.4488H120.5V21.7242V10.7246H126.566V21.7242Z" fill="#7B8387"/>
<path d="M138.699 402.034H132.633V413.034H138.699V402.034Z" fill="#7B8387"/>
<path d="M144.765 412.759H138.699V423.758H144.765V412.759Z" fill="#7B8387"/>
<path d="M150.556 43.4482H144.49V54.4478H150.556V43.4482Z" fill="#7B8387"/>
<path d="M144.49 282.414V271.69V260.69V249.965V238.966V228.241V217.242V206.517V195.518V184.793H150.556V195.518V206.517V217.242V228.241V238.966V249.965V260.69V271.69V282.414V293.414V304.138H144.49V293.414V282.414Z" fill="#7B8387"/>
<path d="M156.622 65.1724V76.172V86.8966V97.8961V108.621V119.345V130.345V141.344H150.556V130.345V119.345V108.621V97.8961V86.8966V76.172V65.1724V54.1729H156.622V65.1724Z" fill="#7B8387"/>
<path d="M156.623 141.345H150.556V152.344H156.623V141.345Z" fill="#555C5E"/>
<path d="M156.623 152.069H150.556V163.068H156.623V152.069Z" fill="#424A4A"/>
<path d="M156.623 163.069H150.556V174.068H156.623V163.069Z" fill="#2E3535"/>
<path d="M156.623 173.793H150.556V184.793H156.623V173.793Z" fill="#1B2322"/>
<path d="M96.5103 467.207V477.931H90.444H84.3776H78.3112H72.2449H66.1785H60.3879H54.3215V467.207H60.3879H66.1785V456.207H72.2449H78.3112H84.3776H90.444H96.5103H102.301V467.207H96.5103Z" fill="#FBCB29"/>
<path d="M132.633 630.001H126.566H120.5H114.434H108.367V619.276H102.301V608.276H108.367H114.434H120.5H126.566H132.633V619.276V630.001Z" fill="#FBCB29"/>
<path d="M144.49 445.482H150.556H156.622H162.689H168.755H174.822H180.888H186.679H192.745H198.811H204.878H210.944H217.01H222.801V456.207H228.867V467.207V477.931H222.801H217.01H210.944H204.878H198.811H192.745H186.679H180.888H174.822H168.755H162.689H156.622H150.556H144.49H138.699V467.207H132.633V456.207H126.566V445.482H132.633H138.699V434.483H144.49V445.482Z" fill="#FBCB29"/>
<path d="M234.934 456.207H228.867V467.207H234.934V456.207Z" fill="#CEB251"/>
<path d="M234.934 467.207H228.867V478.206H234.934V467.207Z" fill="#232B29"/>
<path d="M12.1328 477.931H6.06641V488.931H12.1328H18.1991H24.2655H30.3319H36.3982H42.4646H48.5309H54.5973H60.6637H66.1785H72.2449H78.3112H84.3776H90.444H96.5103V499.93V510.93V521.929V532.654V543.654V554.653V565.653V576.652V587.652V598.651V609.376V620.376V631.375H102.577V620.376V609.376H108.643H114.709H120.776H126.842H132.909H138.975V620.376H132.909V631.375H138.975H145.041V620.376V609.376V598.651V587.652V576.652V565.653V554.653V543.654V532.654V521.929V510.93V499.93V488.931H151.108H157.174H162.689H168.755H174.822H180.888H186.954H193.021H199.087H205.153H211.22H217.286H223.352H228.867H234.934V477.931H228.867H222.801H216.735H210.668H204.602H198.536H192.469H186.403H180.336H174.27H168.204H162.689H156.622H150.556H144.49H138.423V466.932H132.357V477.931V488.931V499.93H126.291H120.224H114.158H108.092V510.93H114.158H120.224H126.291H132.357V521.929V532.654V543.654V554.653H126.291H120.224H114.158H108.092H102.025V543.654V532.654V521.929V510.93V499.93V488.931V477.931H108.092V466.932H102.025H96.5103V477.931H90.444H84.3776H78.3112H72.2449H66.1785H60.1122H54.0458H47.9794H41.9131H35.8467H29.7804H23.9897H18.1991H12.1328ZM102.301 564.828H108.367H114.434H120.5H126.566H132.633V575.827V586.827V597.827H126.566H120.5H114.434H108.367H102.301V586.827V575.827V564.828Z" fill="black"/>
<path d="M90.4439 43.4483V54.1729H84.3776V65.1725V76.172V86.8966V97.8962V108.621V119.345V130.345V141.344H90.4439V152.069V163.069V173.793V184.793V195.517V206.517V217.242V228.241V238.966V249.965V260.69V271.689V282.414V293.414V304.138V315.138H96.5103V325.862V336.862V347.586V358.586V369.311V380.31V391.035V402.034V412.759V423.758H102.301V434.483H96.5103V445.483H90.4439H84.3776H78.3112H72.2449H66.1785H60.3879H54.3215H48.2551H42.1888H36.1224H30.0561H23.9897H18.1991H12.1327V456.207H6.06636V467.207V477.931H0V467.207V456.207V445.483H6.06636V434.483H12.1327H18.1991H23.9897H30.0561H36.1224H42.1888H48.2551H54.3215H60.3879H66.1785H72.2449H78.3112H84.3776V423.758V412.759V402.034V391.035V380.31V369.311V358.586V347.586V336.862V325.862V315.138V304.138V293.414V282.414V271.689V260.69V249.965V238.966V228.241V217.242V206.517V195.517V184.793V173.793V163.069H78.3112V152.069V141.344V130.345V119.345V108.621V97.8962V86.8966V76.172V65.1725V54.1729V43.4483H84.3776V32.4487H90.4439H96.5103V43.4483H90.4439Z" fill="black"/>
<path d="M102.577 21.7241H96.5103V32.4487H102.577V21.7241Z" fill="black"/>
<path d="M108.367 10.7246H102.301V21.7242H108.367V10.7246Z" fill="black"/>
<path d="M108.367 412.759H102.301V423.758H108.367V412.759Z" fill="black"/>
<path d="M114.434 456.207H108.367V467.207H114.434V456.207Z" fill="black"/>
<path d="M114.434 630H120.5H126.566V641H120.5H114.434H108.367H102.301V630H108.367H114.434Z" fill="black"/>
<path d="M114.434 412.759H108.367V402.034H114.434H120.5V412.759H114.434Z" fill="black"/>
<path d="M114.434 456.207V445.482H120.5H126.566V456.207H120.5H114.434Z" fill="black"/>
<path d="M126.566 391.035H120.5V402.034H126.566V391.035Z" fill="black"/>
<path d="M132.633 10.7246H126.566H120.5H114.434H108.367V0H114.434H120.5H126.566H132.633V10.7246Z" fill="black"/>
<path d="M132.633 402.034H126.566V413.034H132.633V402.034Z" fill="black"/>
<path d="M132.633 456.207H126.566V467.207H132.633V456.207Z" fill="black"/>
<path d="M138.699 10.7246H132.633V21.7242H138.699V10.7246Z" fill="black"/>
<path d="M138.699 412.759H132.633V423.758H138.699V412.759Z" fill="black"/>
<path d="M150.556 21.7241V32.4487H144.49H138.699V21.7241H144.49H150.556Z" fill="black"/>
<path d="M156.623 32.4487H150.556V43.4483H156.623V32.4487Z" fill="black"/>
<path d="M162.689 54.1728V65.1724V76.172V86.8965V97.8961V108.621V119.345V130.345V141.344V152.069V163.069H156.622V152.069V141.344V130.345V119.345V108.621V97.8961V86.8965V76.172V65.1724V54.1728V43.4482H162.689V54.1728Z" fill="black"/>
<path d="M234.934 456.207H228.867H222.801V445.483H217.01H210.944H204.877H198.811H192.745H186.678H180.888H174.821H168.755H162.689H156.622H150.556H144.49V434.483H138.699V423.759H144.49V412.759V402.035V391.035V380.31V369.311V358.586V347.587H150.556V336.862V325.862V315.138V304.138V293.414V282.414V271.69V260.69V249.965V238.966V228.241V217.242V206.517V195.518V184.793H156.622V195.518V206.517V217.242V228.241V238.966V249.965V260.69V271.69V282.414V293.414V304.138V315.138V325.862V336.862V347.587V358.586V369.311V380.31V391.035V402.035V412.759V423.759V434.483H162.689H168.755H174.821H180.888H186.678H192.745H198.811H204.877H210.944H217.01H222.801H228.867V445.483H234.934H241V456.207V467.207V477.932H234.934V467.207V456.207Z" fill="black"/>
<path d="M150.556 65.1724V76.172V86.8965V97.8961V108.621V119.345V130.345V141.344V152.069V163.069V173.793H144.49V184.793V195.517V206.517V217.241V228.241V238.966V249.965V260.69V271.689V282.414V293.413V304.138V315.138V325.862V336.862V347.586V358.586V369.311V380.31V391.035V402.034V412.759H138.699V402.034H132.633H126.566V391.035V380.31V369.311V358.586V347.586V336.862V325.862V315.138V304.138V293.413V282.414V271.689V260.69V249.965V238.966V228.241V217.241V206.517V195.517V184.793V173.793V163.069V152.069V141.344V130.345V119.345V108.621V97.8961H132.633V86.8965V76.172V65.1724V54.1728V43.4482H138.699H144.49V54.1728H150.556V65.1724Z" fill="white"/>
</g>
<defs>
<clipPath id="clip0_25_1103">
<rect width="241" height="641" fill="white"/>
</clipPath>
</defs>
</svg>
